<?xml version="1.0" encoding="UTF-8" standalone="no"?>
<svg
   xmlns:dc="http://purl.org/dc/elements/1.1/"
   xmlns:cc="http://creativecommons.org/ns#"
   xmlns:rdf="http://www.w3.org/1999/02/22-rdf-syntax-ns#"
   xmlns:svg="http://www.w3.org/2000/svg"
   xmlns="http://www.w3.org/2000/svg"
   xmlns:sodipodi="http://sodipodi.sourceforge.net/DTD/sodipodi-0.dtd"
   xmlns:inkscape="http://www.inkscape.org/namespaces/inkscape"
   viewBox="0 0 640 640"
   version="1.1"
   id="svg817"
   sodipodi:docname="icon-medium.svg"
   width="640"
   height="640"
   inkscape:version="0.92.3 (2405546, 2018-03-11)"
   inkscape:export-filename="C:\Users\10\IdeaProjects\infy-scroll\src\chrome\img\icon-medium.png"
   inkscape:export-xdpi="19.200001"
   inkscape:export-ydpi="19.200001">
  <metadata
     id="metadata823">
    <rdf:RDF>
      <cc:Work
         rdf:about="">
        <dc:format>image/svg+xml</dc:format>
        <dc:type
           rdf:resource="http://purl.org/dc/dcmitype/StillImage" />
        <dc:title></dc:title>
      </cc:Work>
    </rdf:RDF>
  </metadata>
  <defs
     id="defs821" />
  <sodipodi:namedview
     pagecolor="#ffffff"
     bordercolor="#666666"
     borderopacity="1"
     objecttolerance="10"
     gridtolerance="10"
     guidetolerance="10"
     inkscape:pageopacity="0"
     inkscape:pageshadow="2"
     inkscape:window-width="1920"
     inkscape:window-height="1017"
     id="namedview819"
     showgrid="false"
     inkscape:zoom="0.2927864"
     inkscape:cx="320"
     inkscape:cy="434.04612"
     inkscape:window-x="-8"
     inkscape:window-y="-8"
     inkscape:window-maximized="1"
     inkscape:current-layer="svg817" />
  <path
     d="M 471.1,160 C 405,160 353.3,201.3 320,238.6 286.7,201.3 235,160 168.9,160 75.8,160 0,231.8 0,320 0,408.2 75.8,480 168.9,480 235,480 286.7,438.7 320,401.4 353.3,438.7 405,480 471.1,480 564.2,480 640,408.2 640,320 640,231.8 564.2,160 471.1,160 Z M 168.9,384 C 128.7,384 96,355.3 96,320 c 0,-35.3 32.7,-64 72.9,-64 38.2,0 73.4,36.1 94,64 -20.4,27.6 -55.9,64 -94,64 z m 302.2,0 c -38.2,0 -73.4,-36.1 -94,-64 20.4,-27.6 55.9,-64 94,-64 40.2,0 72.9,28.7 72.9,64 0,35.3 -32.7,64 -72.9,64 z"
     id="path815"
     inkscape:connector-curvature="0"
     style="fill:#77777f;fill-opacity:1" />
</svg>
