<?xml version="1.0" encoding="UTF-8" standalone="no"?>
<svg
   xmlns:osb="http://www.openswatchbook.org/uri/2009/osb"
   xmlns:dc="http://purl.org/dc/elements/1.1/"
   xmlns:cc="http://creativecommons.org/ns#"
   xmlns:rdf="http://www.w3.org/1999/02/22-rdf-syntax-ns#"
   xmlns:svg="http://www.w3.org/2000/svg"
   xmlns="http://www.w3.org/2000/svg"
   xmlns:xlink="http://www.w3.org/1999/xlink"
   xmlns:sodipodi="http://sodipodi.sourceforge.net/DTD/sodipodi-0.dtd"
   xmlns:inkscape="http://www.inkscape.org/namespaces/inkscape"
   viewBox="0 0 640 640"
   version="1.1"
   id="svg817"
   sodipodi:docname="icon.svg"
   width="640"
   height="640"
   inkscape:version="0.92.3 (2405546, 2018-03-11)"
   inkscape:export-filename="C:\Users\10\Desktop\icon-dark.png"
   inkscape:export-xdpi="19.200001"
   inkscape:export-ydpi="19.200001">
  <metadata
     id="metadata823">
    <rdf:RDF>
      <cc:Work
         rdf:about="">
        <dc:format>image/svg+xml</dc:format>
        <dc:type
           rdf:resource="http://purl.org/dc/dcmitype/StillImage" />
        <dc:title />
      </cc:Work>
    </rdf:RDF>
  </metadata>
  <defs
     id="defs821">
    <linearGradient
       id="linearGradient2347"
       osb:paint="solid">
      <stop
         style="stop-color:#8073ae;stop-opacity:1;"
         offset="0"
         id="stop2345" />
    </linearGradient>
    <clipPath
       clipPathUnits="userSpaceOnUse"
       id="clipPath9443">
      <use
         x="0"
         y="0"
         xlink:href="#g9439"
         id="use9445"
         width="100%"
         height="100%" />
    </clipPath>
  </defs>
  <sodipodi:namedview
     pagecolor="#ffffff"
     bordercolor="#666666"
     borderopacity="1"
     objecttolerance="10"
     gridtolerance="10"
     guidetolerance="10"
     inkscape:pageopacity="0"
     inkscape:pageshadow="2"
     inkscape:window-width="1920"
     inkscape:window-height="1017"
     id="namedview819"
     showgrid="false"
     inkscape:zoom="0.20703125"
     inkscape:cx="142.65209"
     inkscape:cy="365.73694"
     inkscape:window-x="-8"
     inkscape:window-y="-8"
     inkscape:window-maximized="1"
     inkscape:current-layer="svg817"
     inkscape:measure-start="100.756,602.829"
     inkscape:measure-end="201.512,502.073" />
  <path
     d="M 471.1,314 C 405,314 353.3,355.3 320,392.6 286.7,355.3 235,314 168.9,314 75.8,314 0,385.8 0,474 0,562.2 75.8,634 168.9,634 235,634 286.7,592.7 320,555.4 353.3,592.7 405,634 471.1,634 564.2,634 640,562.2 640,474 640,385.8 564.2,314 471.1,314 Z M 168.9,538 C 128.7,538 96,509.3 96,474 c 0,-35.3 32.7,-64 72.9,-64 38.2,0 73.4,36.1 94,64 -20.4,27.6 -55.9,64 -94,64 z m 302.2,0 c -38.2,0 -73.4,-36.1 -94,-64 20.4,-27.6 55.9,-64 94,-64 40.2,0 72.9,28.7 72.9,64 0,35.3 -32.7,64 -72.9,64 z"
     id="path815"
     inkscape:connector-curvature="0" />
  <path
     style="opacity:0.97000002;fill:#8073ae;fill-opacity:1;stroke:none;stroke-opacity:1"
     id="path9427"
     sodipodi:type="arc"
     sodipodi:cx="-197.48727"
     sodipodi:cy="-45.910141"
     sodipodi:rx="86.943398"
     sodipodi:ry="86.943398"
     sodipodi:start="0"
     sodipodi:end="6.2746332"
     sodipodi:open="true"
     d="m -110.54388,-45.910141 a 86.943398,86.943398 0 0 1 -86.75751,86.943199 86.943398,86.943398 0 0 1 -87.12849,-86.571425 86.943398,86.943398 0 0 1 86.38495,-87.313383 86.943398,86.943398 0 0 1 87.49787,86.198069" />
  <g
     id="g9441"
     clip-path="url(#clipPath9443)"
     transform="matrix(0.98755075,0,0,1.0864857,46.945942,-4.1275893)"
     style="fill:#8073ae;fill-opacity:1;stroke:none;opacity:1">
    <g
       inkscape:label="Clip"
       id="g9439"
       style="fill:#8073ae;fill-opacity:1;stroke:none">
      <rect
         transform="rotate(41.345995)"
         y="-89.584908"
         x="110.6194"
         height="89.861618"
         width="254.98235"
         id="rect9433"
         style="opacity:0.97000002;fill:#8073ae;fill-opacity:1;stroke:none;stroke-width:3.90687394;stroke-linecap:round;stroke-miterlimit:4;stroke-dasharray:none;stroke-opacity:1" />
      <rect
         style="opacity:0.97000002;fill:#8073ae;fill-opacity:1;stroke:none;stroke-width:3.90687394;stroke-linecap:round;stroke-miterlimit:4;stroke-dasharray:none;stroke-opacity:1"
         id="rect9435"
         width="254.98235"
         height="89.861618"
         x="-301.21362"
         y="272.80542"
         transform="matrix(-0.75073407,0.66060454,0.66060454,0.75073407,0,0)" />
    </g>
  </g>
  <circle
     style="display:inline;opacity:0.86199999;fill:#1779ba;fill-opacity:1;stroke:none;stroke-width:3.50814652;stroke-linejoin:round;stroke-miterlimit:4;stroke-dasharray:none;stroke-opacity:1;paint-order:markers stroke fill"
     id="path4505"
     cx="-345.15048"
     cy="247.24811"
     r="68.264397" />
  <circle
     r="39.674294"
     cy="384.35107"
     cx="-388.0719"
     id="circle4507"
     style="display:inline;opacity:0.86199999;fill:#05854d;fill-opacity:1;stroke:none;stroke-width:2.03888535;stroke-linejoin:round;stroke-miterlimit:4;stroke-dasharray:none;stroke-opacity:1;paint-order:markers stroke fill" />
  <circle
     style="display:inline;opacity:0.86199999;fill:#ff0000;fill-opacity:1;stroke:none;stroke-width:2.60865259;stroke-linejoin:round;stroke-miterlimit:4;stroke-dasharray:none;stroke-opacity:1;paint-order:markers stroke fill"
     id="circle4509"
     cx="-260.30112"
     cy="345.61069"
     r="50.761272" />
  <circle
     r="35.415035"
     cy="148.13025"
     cx="-403.70068"
     id="circle4515"
     style="display:inline;opacity:0.86199999;fill:#663399;fill-opacity:1;stroke:none;stroke-width:1.81999922;stroke-linejoin:round;stroke-miterlimit:4;stroke-dasharray:none;stroke-opacity:1;paint-order:markers stroke fill" />
  <circle
     style="display:inline;opacity:0.86199999;fill:#ffcc22;fill-opacity:1;stroke:none;stroke-width:2.20768285;stroke-linejoin:round;stroke-miterlimit:4;stroke-dasharray:none;stroke-opacity:1;paint-order:markers stroke fill"
     id="circle838"
     cx="-236.24495"
     cy="160.23123"
     r="42.9589" />
  <path
     id="rect2844"
     style="opacity:0.97000002;fill:#ffffff;fill-opacity:1;stroke:none;stroke-width:4.19999981;stroke-linecap:round;stroke-miterlimit:4;stroke-dasharray:none;stroke-opacity:1"
     d="m 818.8724,-197.57457 v 150.279286 h 92.10743 c -2.57213,-3.06978 -2.9565,-5.94016 -2.41797,-9.18945 -0.34664,-0.58051 0.71867,-3.18592 0.52344,-2.44922 -0.22465,0.84766 -0.39196,1.65594 -0.52344,2.44922 0.0452,0.0757 0.11171,0.12241 0.21094,0.11718 0.64696,-0.0341 1.19649,-0.0944 1.78906,-0.14257 0.86849,-0.67395 2.43114,-1.27333 4.92188,-1.9043 -0.13058,-0.45325 -0.26493,-0.90436 -0.4336,-1.33594 0.23618,-0.31454 0.42867,-0.66017 0.6211,-1.00586 -0.20421,-0.0234 -0.35824,-0.0282 -0.57618,-0.0566 -0.74792,-0.0976 0.42094,-0.67807 1.46289,-1.25586 0.2615,-0.25778 0.87104,-0.64343 1.08203,-0.73828 -1.05747,-1.40664 -2.19983,-3.06878 -3.44335,-5.03906 -0.0173,-0.0273 -0.0204,-0.0513 -0.0352,-0.0781 -0.24639,-0.13176 -0.49307,-0.26379 -0.74414,-0.38672 -1.60751,-5.20146 -0.20664,-10.78733 0.93359,-16.12304 -0.2667,0.0834 -0.53522,0.15862 -0.80664,0.21875 -3.83066,0.84863 -10.60425,1.54385 -14.09375,-0.82227 -2.56708,-1.74066 -3.79544,-4.90627 -5.69336,-7.35937 0.32798,0.29502 0.58118,0.70142 0.98242,0.88476 0.37827,0.17286 1.56412,0.39417 1.24219,0.13086 -2.68927,-2.19958 -4.31312,-1.78644 -6.42969,-4.42773 -0.46981,-0.58628 -0.93909,-1.21485 -1.40625,-1.83985 -0.65634,0.18483 -1.31582,0.34512 -1.99414,0.38282 -4.76572,0.26481 -10.95595,1.05666 -13.79101,-4.218746 -0.62864,-1.16975 -0.88163,-2.47192 -1.04102,-3.8086 -2.35099,-0.55091 -4.59211,-1.0991 -4.66601,-1.23047 -0.381,-0.67728 -0.73607,-1.38682 -1.07618,-2.10937 -3.14715,-1.84113 -5.91585,-7.32312 -6.56835,-10.0586 -0.73978,-3.10133 -1.04763,-6.33056 -0.95508,-9.51757 0.0321,-1.10762 -0.0323,-2.59883 0.40625,-3.61719 -4.28159,1.52103 -8.56637,3.03701 -12.81446,4.64844 0.0834,0.0782 0.1741,0.14866 0.25586,0.22852 0.10487,0.10242 -0.54132,-0.12176 -0.4043,-0.17383 0.0493,-0.0187 0.0991,-0.036 0.14844,-0.0547 -0.94657,-0.88758 -1.97971,-1.68534 -2.88281,-2.61719 -0.45158,-0.46595 -1.60442,-1.11451 -1.14453,-1.57227 0.35624,-0.35459 8.89429,2.84725 -1.71875,-0.90625 -1.01984,-0.6369 -1.63697,-1.01345 -2.3711,-1.56836 -9.42378,4.67458 -17.28908,-6.2501 -6.94726,-16.18554 0.18656,-0.17923 0.36381,-0.37056 0.54297,-0.5586 -0.38676,-1.96899 -0.74037,-3.94371 -1.02149,-5.92968 -0.65299,0.86123 -1.4121,1.71705 -1.93554,2.50586 0.69179,1.88187 0.97772,3.1961 0.23632,2.79101 -1.24093,-0.67803 -0.9824,-1.66671 -0.23632,-2.79101 -0.33508,-0.91151 -0.7638,-1.93578 -1.22852,-2.9961 -0.55381,-0.57398 -1.15594,-1.54635 -1.81836,-3.03125 -3.10719,-6.96514 -0.31929,-1.84611 1.81836,3.03125 4.21468,4.3682 5.63971,-14.83626 9.66992,-15.04883 0.94637,-0.0499 2.03618,0.94813 3.33985,3.54493 1.14651,2.28376 2.52473,4.4665 3.46484,6.83984 0.95117,-0.12959 2.01193,-0.15594 3.24219,-0.0234 0.0302,0.002 3.67335,0.0398 3.74023,0.28711 0.0437,0.16165 -0.58038,0.30465 -0.41406,0.28516 1.85917,-0.21796 2.87556,-3.84059 5.42578,-1.44727 3.90561,0.46871 7.42847,1.28182 10.96875,3.12305 0.55834,0.29038 0.85824,1.03469 1.46875,1.1875 1.87045,0.46815 3.91363,-0.89466 5.77344,-0.35157 3.7628,0.0831 4.15082,-0.23126 7.96875,1.44336 0.68329,0.29971 2.31122,1.0011 2.53516,1.38086 0.66719,0.2374 1.09771,0.5272 1.75586,1.05078 0.59584,0.23749 1.18498,0.55628 1.77148,0.77344 0.60162,0.22276 1.95981,0.3014 1.97266,0.75977 1.10489,0.25464 2.23283,0.54561 2.93359,-0.25782 3.34165,-0.20931 5.03337,-0.60383 8.41406,0.51368 0.83664,0.27655 1.60564,0.71477 2.36328,1.17578 1.71964,-0.52628 3.19136,-0.91753 5.70118,-1.31446 0.86382,-0.13661 1.74913,-0.0127 2.62109,-0.0801 2.35339,-0.18194 2.54992,-0.6345 5.29297,-0.44531 1.28604,0.0887 2.54009,0.43585 3.81055,0.6543 0.86962,0.3481 1.75958,0.65085 2.60937,1.04492 0.18848,0.0874 0.67771,0.31454 0.48438,0.39063 -0.073,0.0287 -0.2148,0.0555 -0.31055,0.084 5.97289,-1.18243 -1.909,-0.21328 11.00586,8.13671 1.06307,0.68732 -0.69951,-2.43364 -1.04883,-3.65039 1.31307,2.66502 2.61208,6.26766 3.30078,8.92774 0.50892,1.96565 -0.4398,4.29306 -0.30664,6.27539 -0.28069,2.89848 0.23746,1.68944 -0.53516,1.20703 -2.6522,-1.65598 -4.96802,-4.27715 -8.04687,-4.82227 -1.60099,-0.28345 -2.75438,-0.27178 -3.56445,-0.0527 0.16978,0.20073 0.33602,0.40575 0.51367,0.59766 0.17913,0.19351 0.99741,0.30971 0.73437,0.29102 -1.27746,-0.0908 -1.58675,-0.12313 -2.42187,-0.18555 -0.4109,0.54345 -0.41686,1.3058 -0.1211,2.18555 1.64231,0.37528 4.60859,2.87203 9.81055,9.11524 3.10901,1.11921 5.64874,0.2566 5.2832,-4.90235 0.0649,1.75074 1.44855,5.18359 1.14258,6.30859 -0.18732,0.68875 -5.98828,11.79167 -3.62695,6.29297 -0.46923,0.88627 -0.7525,1.89778 -1.40625,2.65821 -0.21759,0.25311 -0.909,-0.18992 -0.99414,0.13281 -0.24947,0.94564 0.12605,1.95352 0.18555,2.92969 0.2772,4.54759 0.56511,9.08591 -0.66211,13.550776 -0.51449,1.16577 -0.85785,2.01729 -1.19532,2.76953 0.57098,2.10605 0.47539,4.51525 0.34961,7.19336 6.12772,2.22524 11.26696,6.69744 15.65039,11.47656 -0.0145,-0.0751 -0.0327,-0.14944 -0.0469,-0.22461 -0.0393,-0.20795 0.22639,0.3565 0.33984,0.53516 -0.0951,-0.10474 -0.19715,-0.20608 -0.29297,-0.31055 0.80201,4.16596 1.99705,8.25996 2.58789,12.46094 0.22632,1.60912 -0.1543,3.24618 -0.16601,4.87109 -0.01,1.33512 -0.001,2.67075 0.0156,4.00586 1.77517,-0.30291 2.0257,0.58048 2.93164,3.52344 -0.50862,-0.32795 -2.0361,-1.30712 -1.52539,-0.98242 1.41405,0.89902 4.06461,2.60678 5.3125,3.52344 1.11766,-0.24898 2.38692,-0.41929 3.79297,-0.39844 0.7135,0.0106 1.37998,0.30453 2.00586,0.70117 h 8.31641 V -197.57451 Z m 98.76758,134.767566 c 0.009,0.0115 0.0168,0.0217 0.0254,0.0332 0.0687,-0.0626 0.0497,-0.067 -0.0254,-0.0332 z m 0.0254,0.0332 c -0.006,0.006 -0.004,0.005 -0.0117,0.0117 -0.24123,0.20737 -0.65627,0.44969 -1.09571,0.69336 -0.0171,0.0169 -0.0508,0.0391 -0.0645,0.0547 -0.33135,0.37674 -0.57682,0.81687 -0.82226,1.25781 1.49532,0.17172 2.65407,0.22393 3.50976,0.17774 -0.72919,-0.0416 -1.60764,-0.0968 -2.89453,-0.22266 0.85462,-0.16684 1.69894,-0.33538 2.54297,-0.49414 -0.37606,-0.45771 -0.76276,-0.94563 -1.16406,-1.47852 z m 1.51562,2.19532 c 0.0956,0.005 0.17192,0.0107 0.25977,0.0156 -0.0117,-0.0135 -0.0234,-0.0235 -0.0352,-0.0371 -0.0789,0.006 -0.14047,0.0169 -0.22461,0.0215 z m 0.25977,0.0156 c 0.33927,0.39113 0.66407,0.74441 0.98242,1.07422 0.46684,-0.0919 1.03491,-0.19548 1.53906,-0.29102 -0.4417,-0.65756 -0.86207,-0.69026 -2.52148,-0.7832 z m 0.98242,1.07422 c -1.90752,0.37567 -3.60692,0.73665 -4.93945,1.07422 0.11646,0.40428 0.24012,0.80513 0.37109,1.20117 2.33242,-0.46786 4.01546,-1.04264 5.22851,-1.61523 -0.2139,-0.20284 -0.43619,-0.42814 -0.66015,-0.66016 z m -72.57422,-87.990206 c 0.0824,0.0569 0.11725,0.0796 0.19726,0.13476 0.002,-4.4e-4 0.004,-0.002 0.006,-0.002 -0.0207,-0.0128 -0.26971,-0.17878 -0.20312,-0.13281 z m 25.13672,4.85156 c 0.0159,0.046 0.035,0.10484 0.0508,0.15039 0.51469,0.35702 1.12416,0.80493 1.04883,0.93946 -0.24435,0.0329 -0.4625,0.0461 -0.69727,0.0723 6.5657,18.76685 2.33441,0.38177 1.21485,17.47265 -0.036,0.54965 0.2914,1.02718 0.65234,1.49024 1.18716,0.11333 1.93352,0.40818 1.89258,1.0332 0.64396,0.14853 1.38374,0.32497 2.45508,0.56055 7.20899,3.67355 4.06656,1.30504 6.79492,5.97265 0.12227,-0.007 0.25172,-0.009 0.36718,-0.0215 5.44745,-0.57109 4.7401,-0.0495 9.92969,2.2168 9.08848,23.613716 0.74375,2.19571 0.97071,1.90429 1.27194,-1.63318 3.26038,2.55562 4.96875,3.72461 3.66531,2.50806 1.85977,-2.07281 6.3789,6.22266 0.0925,0.16981 0.16971,0.34602 0.24805,0.52148 0.14353,0.03 0.28323,0.0482 0.41016,0.0352 0.1692,-0.0174 -0.1752,-0.44583 -0.0176,-0.50977 3.97061,-1.61047 5.49135,-1.83374 7.4414,-1.15234 -0.0784,-0.12831 -0.16226,-0.27346 -0.2832,-0.48828 0.15326,-2.38471 -0.99414,-7.29664 -0.59375,-9.36133 1.22376,-6.31048 1.83621,-6.90697 4.26953,-11.70117 -4.10954,4.23188 -2.5407,2.48895 -0.0371,-0.082 -1.38831,-2.55469 -1.24901,-5.69684 -0.97851,-9.48829 0.36852,0.89173 0.38995,-0.3681 0.33203,-1.875 -1.99162,-0.24779 0.17149,-0.43652 -4.59961,-1.83593 0.14437,0.18471 0.25048,0.35505 0.16797,0.37695 -1.79775,0.47709 -3.72175,0.15898 -5.5625,0.42578 -1.34046,0.19429 -2.55397,0.90477 -3.84375,1.31836 -4.71985,1.08526 -3.14814,1.14257 -10.44922,-1.66992 -0.0682,-0.0263 -0.12371,-0.0738 -0.1875,-0.10742 -0.31159,0.19587 -0.93274,-0.0163 -1.34961,0.041 -4.76381,0.80175 -7.04079,0.36851 -11.86719,-1.23438 -0.65117,-0.21626 -1.21224,-0.65179 -1.85547,-0.89062 -0.11271,-0.0419 -0.24925,0.13018 -0.35351,0.0703 -1.22,-0.70056 -2.39507,-1.47586 -3.57422,-2.24414 -0.77575,-0.40853 -1.44574,-0.78466 -1.19141,-0.72657 -0.7114,-0.3981 -1.42983,-0.78315 -2.15234,-1.16015 z m 2.15234,1.16016 c 0.16352,0.0915 0.32877,0.1798 0.49219,0.27148 -0.126,-0.0809 -0.25047,-0.16407 -0.37695,-0.24414 -0.0803,-0.0292 -0.079,-0.0191 -0.11524,-0.0273 z m 0.49219,0.27148 c 0.23406,0.15022 0.46615,0.30322 0.69922,0.45508 0.83907,0.44187 1.72785,0.8846 1.33203,0.67188 -0.68197,-0.36651 -1.35588,-0.74808 -2.03125,-1.12696 z m 1.51758,19.72656 c -0.54695,-0.12615 -1.02809,-0.22932 -1.32617,-0.27734 0.27788,0.42229 0.72473,1.42979 1.00781,1.03711 0.21548,-0.2989 0.30434,-0.54582 0.31836,-0.75977 z m -1.32617,-0.27734 c -0.005,-0.008 -0.0127,-0.0222 -0.0176,-0.0293 -0.16243,-0.23949 -0.35921,-0.48329 -0.54883,-0.72656 -0.68408,-0.0653 -1.51768,-0.0683 -2.41797,-0.0469 1.03475,0.77781 1.91156,1.47664 2.71875,2.13868 -0.49146,-1.14815 -0.76686,-1.50228 0.26563,-1.33594 z m -11.33204,-18.90039 c -1.79903,1.75741 -3.57877,3.51168 -4.33593,4.85547 0.005,0.22288 0.004,0.42456 0.004,0.62891 0.78131,0.49751 1.55544,1.00485 2.27735,1.58007 0.16826,0.13408 -2.28144,-0.66938 -2.27344,-0.83007 0.0102,-0.21285 -0.004,-0.50631 -0.004,-0.75 -0.0788,-0.0502 -0.15737,-0.1005 -0.23632,-0.1504 -0.48315,1.22994 0.17926,2.00014 3.02343,1.88868 -0.60776,0.21949 -1.21775,0.43267 -1.82617,0.65039 1.20505,0.44172 2.40828,1.52798 3.61328,1.99609 -0.54015,-3.01567 -0.0759,-6.63036 -0.24219,-9.86914 z m 29.07422,2.6875 c -0.0453,0.0116 0.51371,0.57766 0.75196,0.74219 0.0356,0.0246 0.0962,0.0357 0.14257,0.0547 -0.26805,-0.27062 -0.53041,-0.55123 -0.83593,-0.76563 -0.0339,-0.0238 -0.0521,-0.0329 -0.0586,-0.0312 z m -5.38867,24.36914 c -0.028,0.0124 -0.0552,0.0391 -0.0801,0.084 -0.12661,0.22879 -0.2371,0.46551 -0.35742,0.69727 0.33378,0.49624 0.71027,1.04059 1.13867,1.63867 0.44797,0.62541 -0.28079,-2.60533 -0.70117,-2.41992 z m -1.44336,2.88476 c -1.02159,2.32772 -1.84983,4.74831 -2.72265,7.14844 0.2302,0.34678 0.56444,0.83334 0.86914,1.28516 0.77401,-0.74635 1.55208,-1.48824 2.31836,-2.24219 -0.22563,-4.40472 0.32036,-4.93981 -0.46485,-6.19141 z m -1.85351,8.4336 c -0.0464,0.0447 -0.0923,0.09 -0.13868,0.13476 0.57156,0.95288 0.86403,1.43569 1.92383,3.214846 0.23694,0.0666 0.47019,0.15003 0.70508,0.22656 -1.00438,-1.383856 -1.74843,-2.476196 -2.49023,-3.576166 z m -0.13868,0.13476 c -0.23051,-0.3843 -0.61529,-1.02993 -0.77539,-1.29687 -0.41573,1.14017 -0.85094,2.27181 -1.32226,3.38672 0.69287,-0.70282 1.38735,-1.40417 2.09765,-2.08985 z m -0.77539,-1.29687 c 0.015,-0.041 0.03,-0.082 0.0449,-0.12305 -0.91641,-1.38046 -1.00302,-1.47448 -0.0449,0.12305 z m -12.91796,-4.50391 c -0.67197,0.0722 -1.33988,0.10935 -2.00391,0.0977 0.71042,0.44457 1.42833,0.77631 2.11719,0.9707 -0.0334,-0.35763 -0.0731,-0.71313 -0.11328,-1.06836 z m 51.46093,3.10938 c -3.47299,1.38645 -4.40618,2.66066 -4.84961,3.04492 0.005,0.002 0.0108,0.004 0.0156,0.006 1.45009,-0.72642 3.09034,-1.58472 5.17383,-2.8125 0.11902,-0.0701 -0.21155,-0.2895 -0.33985,-0.23828 z m -12.75781,5.886706 c 0.31579,1.15801 0.51165,2.36423 0.76562,3.54688 0.0505,-1.46123 0.29133,-2.31555 0.92969,-2.99023 -0.50959,-0.21402 -1.10401,-0.38935 -1.69531,-0.55665 z m -18.91992,0.57032 c -0.41974,0.0779 -0.83542,0.18761 -1.24805,0.30664 0.14231,0.0283 0.28353,0.0649 0.42774,0.084 0.30008,0.0396 1.11793,-0.44582 0.82031,-0.39062 z m 39.66992,30.75 c -0.0137,0.0793 -0.0109,0.15894 -0.0293,0.23828 -0.0928,0.79618 -0.2044,1.59933 -0.32812,2.39648 0.54581,0.95825 1.12354,1.99793 1.85742,3.14453 0.0717,1.38002 0.42445,2.77474 0.21484,4.14063 -0.0496,0.32305 -0.11416,0.6462 -0.17773,0.96875 0.40533,0.70732 0.68801,1.44722 0.91016,2.20898 -0.0111,-1.2675 -0.017,-2.53536 0,-3.80273 0.0273,-2.03789 -1.27886,-4.77282 0.25976,-6.10938 0.46392,-0.40299 0.92888,-0.12835 1.41406,0.36329 0.13138,-1.4366 -0.0102,-0.0352 -3.13671,-2.66797 -0.38273,-0.32229 -0.6655,-0.59037 -0.98438,-0.88086 z m 4.60938,4.08203 c 0.57825,0.68778 1.18625,1.4872 1.85742,1.72265 0.84979,0.29813 -0.83873,-0.91143 -1.85742,-1.72265 z"
     inkscape:connector-curvature="0" />
  <path
     sodipodi:type="star"
     style="opacity:0.97000002;fill:#000000;fill-opacity:1;stroke:none;stroke-width:4.45895386;stroke-linecap:round;stroke-miterlimit:4;stroke-dasharray:none;stroke-opacity:1"
     id="path2885"
     sodipodi:sides="3"
     sodipodi:cx="137.61266"
     sodipodi:cy="104.36342"
     sodipodi:r1="123.09023"
     sodipodi:r2="155.27023"
     sodipodi:arg1="1.3107138"
     sodipodi:arg2="2.3579114"
     inkscape:flatsided="true"
     inkscape:rounded="0"
     inkscape:randomized="0"
     d="M 169.26658,223.31397 18.771492,72.301241 224.7999,17.47504 Z"
     inkscape:transform-center-x="-7.7816647"
     inkscape:transform-center-y="27.010613"
     transform="rotate(12.877573,1539.5581,-3138.8535)" />
  <rect
     style="opacity:0.97000002;fill:#8073ae;fill-opacity:1;stroke:none;stroke-width:3.75068593;stroke-linecap:round;stroke-miterlimit:4;stroke-dasharray:none;stroke-opacity:1"
     id="rect2887"
     width="247.05649"
     height="91.502243"
     x="562.16211"
     y="-724.14423"
     transform="rotate(46.016478)" />
  <rect
     transform="matrix(-0.70292316,0.71126579,0.72125321,0.6926715,0,0)"
     y="735.80682"
     x="-865.53949"
     height="89.566772"
     width="241.74033"
     id="rect2889"
     style="opacity:0.97000002;fill:#8073ae;fill-opacity:1;stroke:none;stroke-width:3.67066455;stroke-linecap:round;stroke-miterlimit:4;stroke-dasharray:none;stroke-opacity:1" />
  <circle
     r="68.264397"
     cy="247.24811"
     cx="-345.15048"
     id="circle857"
     style="display:inline;opacity:0.86199999;fill:#1779ba;fill-opacity:1;stroke:none;stroke-width:3.50814652;stroke-linejoin:round;stroke-miterlimit:4;stroke-dasharray:none;stroke-opacity:1;paint-order:markers stroke fill" />
  <circle
     style="display:inline;opacity:0.86199999;fill:#05854d;fill-opacity:1;stroke:none;stroke-width:2.03888535;stroke-linejoin:round;stroke-miterlimit:4;stroke-dasharray:none;stroke-opacity:1;paint-order:markers stroke fill"
     id="circle859"
     cx="-388.0719"
     cy="384.35107"
     r="39.674294" />
  <circle
     r="50.761272"
     cy="345.61069"
     cx="-260.30112"
     id="circle861"
     style="display:inline;opacity:0.86199999;fill:#ff0000;fill-opacity:1;stroke:none;stroke-width:2.60865259;stroke-linejoin:round;stroke-miterlimit:4;stroke-dasharray:none;stroke-opacity:1;paint-order:markers stroke fill" />
  <circle
     style="display:inline;opacity:0.86199999;fill:#663399;fill-opacity:1;stroke:none;stroke-width:1.81999922;stroke-linejoin:round;stroke-miterlimit:4;stroke-dasharray:none;stroke-opacity:1;paint-order:markers stroke fill"
     id="circle863"
     cx="-403.70068"
     cy="148.13025"
     r="35.415035" />
  <circle
     r="42.9589"
     cy="160.23123"
     cx="-236.24495"
     id="circle865"
     style="display:inline;opacity:0.86199999;fill:#ffcc22;fill-opacity:1;stroke:none;stroke-width:2.20768285;stroke-linejoin:round;stroke-miterlimit:4;stroke-dasharray:none;stroke-opacity:1;paint-order:markers stroke fill" />
  <circle
     r="68.264397"
     cy="657.13263"
     cx="-344.36844"
     id="circle867"
     style="display:inline;opacity:0.86199999;fill:#1779ba;fill-opacity:1;stroke:none;stroke-width:3.50814652;stroke-linejoin:round;stroke-miterlimit:4;stroke-dasharray:none;stroke-opacity:1;paint-order:markers stroke fill" />
  <circle
     style="display:inline;opacity:0.86199999;fill:#05854d;fill-opacity:1;stroke:none;stroke-width:2.03888535;stroke-linejoin:round;stroke-miterlimit:4;stroke-dasharray:none;stroke-opacity:1;paint-order:markers stroke fill"
     id="circle869"
     cx="-387.28986"
     cy="794.23566"
     r="39.674294" />
  <circle
     r="50.761272"
     cy="755.49524"
     cx="-259.51907"
     id="circle871"
     style="display:inline;opacity:0.86199999;fill:#ff0000;fill-opacity:1;stroke:none;stroke-width:2.60865259;stroke-linejoin:round;stroke-miterlimit:4;stroke-dasharray:none;stroke-opacity:1;paint-order:markers stroke fill" />
  <circle
     style="display:inline;opacity:0.86199999;fill:#663399;fill-opacity:1;stroke:none;stroke-width:1.81999922;stroke-linejoin:round;stroke-miterlimit:4;stroke-dasharray:none;stroke-opacity:1;paint-order:markers stroke fill"
     id="circle873"
     cx="-402.91864"
     cy="558.01477"
     r="35.415035" />
  <circle
     r="42.9589"
     cy="570.11578"
     cx="-235.46291"
     id="circle875"
     style="display:inline;opacity:0.86199999;fill:#ffcc22;fill-opacity:1;stroke:none;stroke-width:2.20768285;stroke-linejoin:round;stroke-miterlimit:4;stroke-dasharray:none;stroke-opacity:1;paint-order:markers stroke fill" />
  <circle
     style="display:inline;opacity:0.86199999;fill:#1779ba;fill-opacity:1;stroke:none;stroke-width:3.50814652;stroke-linejoin:round;stroke-miterlimit:4;stroke-dasharray:none;stroke-opacity:1;paint-order:markers stroke fill"
     id="circle877"
     cx="-344.36844"
     cy="657.13263"
     r="68.264397" />
  <circle
     r="39.674294"
     cy="794.23566"
     cx="-387.28986"
     id="circle879"
     style="display:inline;opacity:0.86199999;fill:#05854d;fill-opacity:1;stroke:none;stroke-width:2.03888535;stroke-linejoin:round;stroke-miterlimit:4;stroke-dasharray:none;stroke-opacity:1;paint-order:markers stroke fill" />
  <circle
     style="display:inline;opacity:0.86199999;fill:#ff0000;fill-opacity:1;stroke:none;stroke-width:2.60865259;stroke-linejoin:round;stroke-miterlimit:4;stroke-dasharray:none;stroke-opacity:1;paint-order:markers stroke fill"
     id="circle881"
     cx="-259.51907"
     cy="755.49524"
     r="50.761272" />
  <circle
     r="35.415035"
     cy="558.01477"
     cx="-402.91864"
     id="circle883"
     style="display:inline;opacity:0.86199999;fill:#663399;fill-opacity:1;stroke:none;stroke-width:1.81999922;stroke-linejoin:round;stroke-miterlimit:4;stroke-dasharray:none;stroke-opacity:1;paint-order:markers stroke fill" />
  <circle
     style="display:inline;opacity:0.86199999;fill:#ffcc22;fill-opacity:1;stroke:none;stroke-width:2.20768285;stroke-linejoin:round;stroke-miterlimit:4;stroke-dasharray:none;stroke-opacity:1;paint-order:markers stroke fill"
     id="circle885"
     cx="-235.46291"
     cy="570.11578"
     r="42.9589" />
  <g
     style="opacity:1;fill:#8073ae;fill-opacity:1;stroke:none"
     transform="matrix(0.98755075,0,0,1.0864857,315.05949,-352.50443)"
     clip-path="url(#clipPath9443)"
     id="g2357">
    <g
       style="fill:#8073ae;fill-opacity:1;stroke:none"
       id="g2355"
       inkscape:label="Clip">
      <rect
         style="opacity:0.97000002;fill:#8073ae;fill-opacity:1;stroke:none;stroke-width:3.90687394;stroke-linecap:round;stroke-miterlimit:4;stroke-dasharray:none;stroke-opacity:1"
         id="rect2351"
         width="254.98235"
         height="89.861618"
         x="110.6194"
         y="-89.584908"
         transform="rotate(41.345995)" />
      <rect
         transform="matrix(-0.75073407,0.66060454,0.66060454,0.75073407,0,0)"
         y="272.80542"
         x="-301.21362"
         height="89.861618"
         width="254.98235"
         id="rect2353"
         style="opacity:0.97000002;fill:#8073ae;fill-opacity:1;stroke:none;stroke-width:3.90687394;stroke-linecap:round;stroke-miterlimit:4;stroke-dasharray:none;stroke-opacity:1" />
    </g>
  </g>
  <g
     style="fill:#8073ae;fill-opacity:1;stroke:none;opacity:1"
     transform="matrix(0.98755075,0,0,1.0864857,46.945942,-4.1275893)"
     clip-path="url(#clipPath9443)"
     id="g2373">
    <g
       style="fill:#8073ae;fill-opacity:1;stroke:none"
       id="g2371"
       inkscape:label="Clip">
      <rect
         style="opacity:0.97000002;fill:#8073ae;fill-opacity:1;stroke:none;stroke-width:3.90687394;stroke-linecap:round;stroke-miterlimit:4;stroke-dasharray:none;stroke-opacity:1"
         id="rect2367"
         width="254.98235"
         height="89.861618"
         x="110.6194"
         y="-89.584908"
         transform="rotate(41.345995)" />
      <rect
         transform="matrix(-0.75073407,0.66060454,0.66060454,0.75073407,0,0)"
         y="272.80542"
         x="-301.21362"
         height="89.861618"
         width="254.98235"
         id="rect2369"
         style="opacity:0.97000002;fill:#8073ae;fill-opacity:1;stroke:none;stroke-width:3.90687394;stroke-linecap:round;stroke-miterlimit:4;stroke-dasharray:none;stroke-opacity:1" />
    </g>
  </g>
</svg>
