<svg xmlns="http://www.w3.org/2000/svg" xmlns:xlink="http://www.w3.org/1999/xlink" viewBox="0 0 128 128" preserveAspectRatio="xMidYMid meet"><defs><linearGradient id="h"><stop offset="0" stop-color="#00002a"/><stop offset="1" stop-color="#00002a" stop-opacity="0"/></linearGradient><linearGradient id="g"><stop offset="0" stop-color="#00002b"/><stop offset="1" stop-color="#00002b" stop-opacity="0"/></linearGradient><linearGradient id="d"><stop offset="0" stop-color="#fff"/><stop offset="1" stop-color="#fff" stop-opacity="0"/></linearGradient><linearGradient id="b"><stop offset="0" stop-color="#00002b"/><stop offset="1" stop-color="#00002b" stop-opacity="0"/></linearGradient><linearGradient id="a"><stop offset="0" stop-color="#fff"/><stop offset="1" stop-color="#fff" stop-opacity="0"/></linearGradient><linearGradient id="e"><stop offset="0" stop-color="#fff"/><stop offset="1" stop-color="#fff" stop-opacity="0"/></linearGradient><linearGradient id="c"><stop offset="0" stop-color="#fff"/><stop offset="1" stop-color="#fff" stop-opacity=".058"/></linearGradient><linearGradient id="f"><stop offset="0" stop-color="#530000"/><stop offset="1" stop-color="#530000" stop-opacity="0"/></linearGradient><filter id="k"><feGaussianBlur stdDeviation="2.078"/></filter><filter id="i"><feGaussianBlur stdDeviation="2.644"/></filter><filter id="n" x="-.513" width="2.026" y="-.581" height="2.162"><feGaussianBlur stdDeviation="7.264"/></filter><filter id="m" x="-.136" width="1.272" y="-.237" height="1.474"><feGaussianBlur stdDeviation="1.362"/></filter><filter id="q" x="-.74" width="2.481" y="-.68" height="2.361"><feGaussianBlur stdDeviation="10.562"/></filter><radialGradient xlink:href="#d" id="j" cx="-3.912" cy="-.59" fx="-3.912" fy="-.59" r="44.313" gradientTransform="matrix(.13117 .93653 -1.37306 .19231 15.359 6.309)" gradientUnits="userSpaceOnUse"/><radialGradient xlink:href="#g" id="l" cx="-179.434" cy="932.521" fx="-179.434" fy="932.521" r="18.267" gradientTransform="matrix(1 0 0 .61679 0 357.351)" gradientUnits="userSpaceOnUse"/><radialGradient xlink:href="#a" id="o" cx="302.857" cy="516.648" fx="302.857" fy="516.648" r="20.135" gradientTransform="matrix(1 0 0 1.08286 0 -42.81)" gradientUnits="userSpaceOnUse"/><radialGradient xlink:href="#h" id="p" cx="302.857" cy="516.648" fx="302.857" fy="516.648" r="18.393" gradientTransform="matrix(1 0 0 1.0816 0 -42.156)" gradientUnits="userSpaceOnUse"/></defs><g transform="matrix(-1 0 0 1 131.313 -924.362)"><path d="M68 928.456c-20.149 0-36.469 13.712-36.469 30.625 0 15.587 13.866 28.453 31.813 30.375v5.844l-19.719-7.719c-.913-4.73-5.042-8.313-10.031-8.313-5.661 0-10.25 4.59-10.25 10.25 0 5.661 4.589 10.25 10.25 10.25a10.21 10.21 0 009.062-5.468l20.688 8.125v10.875l-.094-.031-6.063 21.28h-18.25v16.782H63.72v-15.562l4.687-16.47h3.875l14.938 7.407v11.469h24.75v-16.75h-20.5l-18.75-9.281-.313.718v-10.78l19.563-3.688c1.742 3.174 5.092 5.312 8.969 5.312 5.66 0 10.25-4.589 10.25-10.25v-.062c-.049-5.627-4.624-10.188-10.25-10.188-5.114 0-9.322 3.76-10.094 8.656l-18.438 3.47v-5.845c18.068-1.828 32.063-14.747 32.063-30.406v-.25c-.171-16.81-16.442-30.375-36.469-30.375z" fill="#333" stroke="#00002a" stroke-width=".186" filter="url(#i)"/><path d="M64 926.456c-20.149 0-36.469 13.712-36.469 30.625 0 15.587 13.866 28.453 31.813 30.375v5.844l-19.719-7.719c-.913-4.73-5.042-8.313-10.031-8.313-5.661 0-10.25 4.59-10.25 10.25 0 5.661 4.589 10.25 10.25 10.25a10.21 10.21 0 009.062-5.468l20.688 8.125v10.875l-.094-.032-6.063 21.282h-18.25v16.781H59.72v-15.563l4.687-16.468h3.875l14.938 7.406v11.469h24.75v-16.75h-20.5l-18.75-9.282-.313.72v-10.782l19.563-3.688c1.742 3.175 5.092 5.313 8.969 5.313 5.66 0 10.25-4.59 10.25-10.25v-.063c-.049-5.626-4.624-10.187-10.25-10.187-5.114 0-9.322 3.76-10.094 8.656l-18.438 3.469v-5.844c18.068-1.829 32.063-14.747 32.063-30.406v-.25c-.171-16.81-16.442-30.375-36.469-30.375z" fill="#000028" stroke="#00002a" stroke-width=".186"/><path transform="translate(0 924.362)" d="M64 2.094c-20.149 0-36.469 13.712-36.469 30.625 0 15.587 13.866 28.453 31.813 30.375v5.843L39.625 61.22c-.913-4.73-5.042-8.313-10.031-8.313-5.661 0-10.25 4.59-10.25 10.25 0 5.661 4.589 10.25 10.25 10.25a10.21 10.21 0 009.062-5.469l20.688 8.126v10.874l-.094-.03-6.063 21.28h-18.25v16.782H59.72v-15.563l4.687-16.469h3.875l14.938 7.407v11.469h24.75v-16.75h-20.5l-18.75-9.282-.313.719V75.719L87.97 72.03c1.742 3.175 5.092 5.313 8.969 5.313 5.66 0 10.25-4.59 10.25-10.25v-.063c-.049-5.626-4.624-10.187-10.25-10.187-5.114 0-9.322 3.76-10.094 8.656l-18.438 3.469v-5.844c18.068-1.829 32.063-14.747 32.063-30.406v-.25C100.298 15.659 84.027 2.094 64 2.094z" opacity=".862" fill="url(#j)" filter="url(#k)"/><path transform="matrix(.15935 .01289 -.00538 .17517 6.169 881.1)" d="M320 516.648a17.143 18.571 0 01-17.106 18.571 17.143 18.571 0 01-17.18-18.492 17.143 18.571 0 0117.033-18.65A17.143 18.571 0 01320 516.489" fill="#edeceb" stroke="#00002a"/><path d="M76.5 943.862c-2.216 0-4 1.784-4 4v6.5H61c-2.216 0-4 1.784-4 4v2c0 2.216 1.784 4 4 4h11.5v5.5c0 2.216 1.784 4 4 4h1c2.216 0 4-1.784 4-4v-5.5H87c2.216 0 4-1.784 4-4v-2c0-2.216-1.784-4-4-4h-5.5v-6.5c0-2.216-1.784-4-4-4z" fill="#edeceb" stroke="#000010" stroke-width=".255" stroke-opacity=".686"/><rect ry="4" rx="4" transform="rotate(-13.85)" y="927.521" x="-191.434" height="10" width="24" fill="#edeceb" stroke="#000010" stroke-width=".255" stroke-opacity=".686"/><rect width="24" height="10" x="-191.434" y="927.521" transform="rotate(-13.85)" rx="4" ry="4" fill="#fff" stroke="url(#l)" stroke-width=".255" filter="url(#m)"/><path d="M76.5 19.5c-2.216 0-4 1.784-4 4V30H61c-2.216 0-4 1.784-4 4v2c0 2.216 1.784 4 4 4h11.5v5.5c0 2.216 1.784 4 4 4h1c2.216 0 4-1.784 4-4V40H87c2.216 0 4-1.784 4-4v-2c0-2.216-1.784-4-4-4h-5.5v-6.5c0-2.216-1.784-4-4-4z" transform="translate(0 924.362)" fill="#fff" stroke="#00002b" stroke-width=".255" filter="url(#n)"/><path d="M320 516.648a17.143 18.571 0 01-17.106 18.571 17.143 18.571 0 01-17.18-18.492 17.143 18.571 0 0117.033-18.65A17.143 18.571 0 01320 516.489" transform="matrix(.15935 .01289 -.00538 .17517 6.169 881.1)" fill="url(#o)" stroke="url(#p)" stroke-width=".998" filter="url(#q)"/></g></svg>