<?xml version="1.0" encoding="UTF-8"?>
<!--!
Feather Icons by @feathericons https://github.com/feathericons/feather
License - https://github.com/feathericons/feather/blob/master/LICENSE (MIT License)
Copyright 2013-2017 Cole Bemis
-->
<svg xmlns="http://www.w3.org/2000/svg" style="display: none;">
  <symbol id="moon" viewBox="0 0 24 24" fill="none" stroke="currentColor" stroke-width="2" stroke-linecap="round" stroke-linejoin="round">
    <path d="M21 12.79A9 9 0 1 1 11.21 3 7 7 0 0 0 21 12.79z" />
  </symbol>
  <symbol id="sun" viewBox="0 0 24 24" fill="none" stroke="currentColor" stroke-width="2" stroke-linecap="round" stroke-linejoin="round">
    <circle cx="12" cy="12" r="5" />
    <line x1="12" y1="1" x2="12" y2="3" />
    <line x1="12" y1="21" x2="12" y2="23" />
    <line x1="4.22" y1="4.22" x2="5.64" y2="5.64" />
    <line x1="18.36" y1="18.36" x2="19.78" y2="19.78" />
    <line x1="1" y1="12" x2="3" y2="12" />
    <line x1="21" y1="12" x2="23" y2="12" />
    <line x1="4.22" y1="19.78" x2="5.64" y2="18.36" />
    <line x1="18.36" y1="5.64" x2="19.78" y2="4.22" />
  </symbol>
  <symbol id="sun-moon" viewBox="0 0 24 24" fill="none" stroke="currentColor" stroke-width="2" stroke-linecap="round" stroke-linejoin="round">
    <g transform="matrix(.5625 0 0 .5625 -1.2961 2.6608)">
      <circle cx="14.552" cy="7.5172" r="5"/>
      <line x1="14.552" x2="14.552" y1="-3.4828" y2="-1.4828"/>
      <line x1="14.552" x2="14.552" y1="16.517" y2="18.517"/>
      <line x1="6.7717" x2="8.1917" y1="-.26276" y2="1.1572"/>
      <line x1="20.912" x2="22.332" y1="13.877" y2="15.297"/>
      <line x1="3.5517" x2="5.5517" y1="7.5172" y2="7.5172"/>
      <line x1="23.552" x2="25.552" y1="7.5172" y2="7.5172"/>
      <line x1="6.7717" x2="8.1917" y1="15.297" y2="13.877"/>
      <line x1="20.912" x2="22.332" y1="1.1572" y2="-.26276"/>
    </g>
    <g transform="matrix(.5625 0 0 .5625 11.495 11.571)">
      <path d="m21 12.79a9 9 0 1 1-9.79-9.79 7 7 0 0 0 9.79 9.79z"/>
    </g>
  </symbol>
</svg>