<?xml version="1.0" encoding="UTF-8"?>
<!--!
Font Awesome Free 6.0.0 by @fontawesome - https://fontawesome.com
License - https://fontawesome.com/license/free (Icons: CC BY 4.0, Fonts: SIL OFL 1.1, Code: MIT License)
Copyright 2022 Fonticons, Inc.
-->
<svg xmlns="http://www.w3.org/2000/svg" style="display: none;">
  <symbol id="circle-check" viewBox="0 0 512 512">
    <path d="M243.8 339.8C232.9 350.7 215.1 350.7 204.2 339.8L140.2 275.8C129.3 264.9 129.3 247.1 140.2 236.2C151.1 225.3 168.9 225.3 179.8 236.2L224 280.4L332.2 172.2C343.1 161.3 360.9 161.3 371.8 172.2C382.7 183.1 382.7 200.9 371.8 211.8L243.8 339.8zM512 256C512 397.4 397.4 512 256 512C114.6 512 0 397.4 0 256C0 114.6 114.6 0 256 0C397.4 0 512 114.6 512 256zM256 48C141.1 48 48 141.1 48 256C48 370.9 141.1 464 256 464C370.9 464 464 370.9 464 256C464 141.1 370.9 48 256 48z"/>
  </symbol>
  <symbol id="circle-question" viewBox="0 0 512 512">
    <path d="M256 0C114.6 0 0 114.6 0 256s114.6 256 256 256s256-114.6 256-256S397.4 0 256 0zM256 464c-114.7 0-208-93.31-208-208S141.3 48 256 48s208 93.31 208 208S370.7 464 256 464zM256 336c-18 0-32 14-32 32s13.1 32 32 32c17.1 0 32-14 32-32S273.1 336 256 336zM289.1 128h-51.1C199 128 168 159 168 198c0 13 11 24 24 24s24-11 24-24C216 186 225.1 176 237.1 176h51.1C301.1 176 312 186 312 198c0 8-4 14.1-11 18.1L244 251C236 256 232 264 232 272V288c0 13 11 24 24 24S280 301 280 288V286l45.1-28c21-13 34-36 34-60C360 159 329 128 289.1 128z"/>
  </symbol>
  <symbol id="clipboard" viewBox="0 0 384 512">
    <path d="M320 64h-49.61C262.1 27.48 230.7 0 192 0S121 27.48 113.6 64H64C28.65 64 0 92.66 0 128v320c0 35.34 28.65 64 64 64h256c35.35 0 64-28.66 64-64V128C384 92.66 355.3 64 320 64zM192 48c13.23 0 24 10.77 24 24S205.2 96 192 96S168 85.23 168 72S178.8 48 192 48zM336 448c0 8.82-7.178 16-16 16H64c-8.822 0-16-7.18-16-16V128c0-8.82 7.178-16 16-16h18.26C80.93 117.1 80 122.4 80 128v16C80 152.8 87.16 160 96 160h192c8.836 0 16-7.164 16-16V128c0-5.559-.9316-10.86-2.264-16H320c8.822 0 16 7.18 16 16V448z"/>
  </symbol>
  <symbol id="clock" viewBox="0 0 512 512">
    <path d="M232 120C232 106.7 242.7 96 256 96C269.3 96 280 106.7 280 120V243.2L365.3 300C376.3 307.4 379.3 322.3 371.1 333.3C364.6 344.3 349.7 347.3 338.7 339.1L242.7 275.1C236 271.5 232 264 232 255.1L232 120zM256 0C397.4 0 512 114.6 512 256C512 397.4 397.4 512 256 512C114.6 512 0 397.4 0 256C0 114.6 114.6 0 256 0zM48 256C48 370.9 141.1 464 256 464C370.9 464 464 370.9 464 256C464 141.1 370.9 48 256 48C141.1 48 48 141.1 48 256z"/>
  </symbol>
  <symbol id="clone" viewBox="0 0 512 512">
    <path d="M64 464H288C296.8 464 304 456.8 304 448V384H352V448C352 483.3 323.3 512 288 512H64C28.65 512 0 483.3 0 448V224C0 188.7 28.65 160 64 160H128V208H64C55.16 208 48 215.2 48 224V448C48 456.8 55.16 464 64 464zM160 64C160 28.65 188.7 0 224 0H448C483.3 0 512 28.65 512 64V288C512 323.3 483.3 352 448 352H224C188.7 352 160 323.3 160 288V64zM224 304H448C456.8 304 464 296.8 464 288V64C464 55.16 456.8 48 448 48H224C215.2 48 208 55.16 208 64V288C208 296.8 215.2 304 224 304z"/>
  </symbol>
  <symbol id="copy" viewBox="0 0 512 512">
    <path d="M502.6 70.63l-61.25-61.25C435.4 3.371 427.2 0 418.7 0H255.1c-35.35 0-64 28.66-64 64l.0195 256C192 355.4 220.7 384 256 384h192c35.2 0 64-28.8 64-64V93.25C512 84.77 508.6 76.63 502.6 70.63zM464 320c0 8.836-7.164 16-16 16H255.1c-8.838 0-16-7.164-16-16L239.1 64.13c0-8.836 7.164-16 16-16h128L384 96c0 17.67 14.33 32 32 32h47.1V320zM272 448c0 8.836-7.164 16-16 16H63.1c-8.838 0-16-7.164-16-16L47.98 192.1c0-8.836 7.164-16 16-16H160V128H63.99c-35.35 0-64 28.65-64 64l.0098 256C.002 483.3 28.66 512 64 512h192c35.2 0 64-28.8 64-64v-32h-47.1L272 448z"/>
  </symbol>
  <symbol id="envelope" viewBox="0 0 512 512">
    <path d="M448 64H64C28.65 64 0 92.65 0 128v256c0 35.35 28.65 64 64 64h384c35.35 0 64-28.65 64-64V128C512 92.65 483.3 64 448 64zM64 112h384c8.822 0 16 7.178 16 16v22.16l-166.8 138.1c-23.19 19.28-59.34 19.27-82.47 .0156L48 150.2V128C48 119.2 55.18 112 64 112zM448 400H64c-8.822 0-16-7.178-16-16V212.7l136.1 113.4C204.3 342.8 229.8 352 256 352s51.75-9.188 71.97-25.98L464 212.7V384C464 392.8 456.8 400 448 400z"/>
  </symbol>
  <symbol id="folder" viewBox="0 0 512 512">
    <path d="M448 96h-172.1L226.7 50.75C214.7 38.74 198.5 32 181.5 32H64C28.65 32 0 60.66 0 96v320c0 35.34 28.65 64 64 64h384c35.35 0 64-28.66 64-64V160C512 124.7 483.3 96 448 96zM64 80h117.5c4.273 0 8.293 1.664 11.31 4.688L256 144h192c8.822 0 16 7.176 16 16v32h-416V96C48 87.18 55.18 80 64 80zM448 432H64c-8.822 0-16-7.176-16-16V240h416V416C464 424.8 456.8 432 448 432z"/>
  </symbol>
  <symbol id="folder-open" viewBox="0 0 576 512">
    <path d="M572.6 270.3l-96 192C471.2 473.2 460.1 480 447.1 480H64c-35.35 0-64-28.66-64-64V96c0-35.34 28.65-64 64-64h117.5c16.97 0 33.25 6.742 45.26 18.75L275.9 96H416c35.35 0 64 28.66 64 64v32h-48V160c0-8.824-7.178-16-16-16H256L192.8 84.69C189.8 81.66 185.8 80 181.5 80H64C55.18 80 48 87.18 48 96v288l71.16-142.3C124.6 230.8 135.7 224 147.8 224h396.2C567.7 224 583.2 249 572.6 270.3z"/>
  </symbol>
  <symbol id="heart" viewBox="0 0 512 512">
    <path d="M244 84L255.1 96L267.1 84.02C300.6 51.37 347 36.51 392.6 44.1C461.5 55.58 512 115.2 512 185.1V190.9C512 232.4 494.8 272.1 464.4 300.4L283.7 469.1C276.2 476.1 266.3 480 256 480C245.7 480 235.8 476.1 228.3 469.1L47.59 300.4C17.23 272.1 0 232.4 0 190.9V185.1C0 115.2 50.52 55.58 119.4 44.1C164.1 36.51 211.4 51.37 244 84C243.1 84 244 84.01 244 84L244 84zM255.1 163.9L210.1 117.1C188.4 96.28 157.6 86.4 127.3 91.44C81.55 99.07 48 138.7 48 185.1V190.9C48 219.1 59.71 246.1 80.34 265.3L256 429.3L431.7 265.3C452.3 246.1 464 219.1 464 190.9V185.1C464 138.7 430.4 99.07 384.7 91.44C354.4 86.4 323.6 96.28 301.9 117.1L255.1 163.9z"/>
  </symbol>
  <symbol id="keyboard" viewBox="0 0 576 512">
    <path d="M512 64H64C28.65 64 0 92.65 0 128v256c0 35.35 28.65 64 64 64h448c35.35 0 64-28.65 64-64V128C576 92.65 547.3 64 512 64zM528 384c0 8.822-7.178 16-16 16H64c-8.822 0-16-7.178-16-16V128c0-8.822 7.178-16 16-16h448c8.822 0 16 7.178 16 16V384zM140 152h-24c-6.656 0-12 5.344-12 12v24c0 6.656 5.344 12 12 12h24c6.656 0 12-5.344 12-12v-24C152 157.3 146.7 152 140 152zM196 200h24c6.656 0 12-5.344 12-12v-24c0-6.656-5.344-12-12-12h-24c-6.656 0-12 5.344-12 12v24C184 194.7 189.3 200 196 200zM276 200h24c6.656 0 12-5.344 12-12v-24c0-6.656-5.344-12-12-12h-24c-6.656 0-12 5.344-12 12v24C264 194.7 269.3 200 276 200zM356 200h24c6.656 0 12-5.344 12-12v-24c0-6.656-5.344-12-12-12h-24c-6.656 0-12 5.344-12 12v24C344 194.7 349.3 200 356 200zM460 152h-24c-6.656 0-12 5.344-12 12v24c0 6.656 5.344 12 12 12h24c6.656 0 12-5.344 12-12v-24C472 157.3 466.7 152 460 152zM140 232h-24c-6.656 0-12 5.344-12 12v24c0 6.656 5.344 12 12 12h24c6.656 0 12-5.344 12-12v-24C152 237.3 146.7 232 140 232zM196 280h24c6.656 0 12-5.344 12-12v-24c0-6.656-5.344-12-12-12h-24c-6.656 0-12 5.344-12 12v24C184 274.7 189.3 280 196 280zM276 280h24c6.656 0 12-5.344 12-12v-24c0-6.656-5.344-12-12-12h-24c-6.656 0-12 5.344-12 12v24C264 274.7 269.3 280 276 280zM356 280h24c6.656 0 12-5.344 12-12v-24c0-6.656-5.344-12-12-12h-24c-6.656 0-12 5.344-12 12v24C344 274.7 349.3 280 356 280zM460 232h-24c-6.656 0-12 5.344-12 12v24c0 6.656 5.344 12 12 12h24c6.656 0 12-5.344 12-12v-24C472 237.3 466.7 232 460 232zM400 320h-224C167.1 320 160 327.1 160 336V352c0 8.875 7.125 16 16 16h224c8.875 0 16-7.125 16-16v-16C416 327.1 408.9 320 400 320z"/>
  </symbol>
  <symbol id="moon" viewBox="0 0 512 512">
    <path d="M421.6 379.9c-.6641 0-1.35 .0625-2.049 .1953c-11.24 2.143-22.37 3.17-33.32 3.17c-94.81 0-174.1-77.14-174.1-175.5c0-63.19 33.79-121.3 88.73-152.6c8.467-4.812 6.339-17.66-3.279-19.44c-11.2-2.078-29.53-3.746-40.9-3.746C132.3 31.1 32 132.2 32 256c0 123.6 100.1 224 223.8 224c69.04 0 132.1-31.45 173.8-82.93C435.3 389.1 429.1 379.9 421.6 379.9zM255.8 432C158.9 432 80 353 80 256c0-76.32 48.77-141.4 116.7-165.8C175.2 125 163.2 165.6 163.2 207.8c0 99.44 65.13 183.9 154.9 212.8C298.5 428.1 277.4 432 255.8 432z"/>
  </symbol>
  <symbol id="note-sticky" viewBox="0 0 448 512">
    <path d="M384 32H64.01C28.66 32 .0085 60.65 .0065 96L0 415.1C-.002 451.3 28.65 480 64 480h232.1c25.46 0 49.88-10.12 67.89-28.12l55.88-55.89C437.9 377.1 448 353.6 448 328.1V96C448 60.8 419.2 32 384 32zM52.69 427.3C50.94 425.6 48 421.8 48 416l.0195-319.1C48.02 87.18 55.2 80 64.02 80H384c8.674 0 16 7.328 16 16v192h-88C281.1 288 256 313.1 256 344v88H64C58.23 432 54.44 429.1 52.69 427.3zM330.1 417.9C322.9 425.1 313.8 429.6 304 431.2V344c0-4.406 3.594-8 8-8h87.23c-1.617 9.812-6.115 18.88-13.29 26.05L330.1 417.9z"/>
  </symbol>
  <symbol id="pen-to-square" viewBox="0 0 512 512">
    <path d="M373.1 24.97C401.2-3.147 446.8-3.147 474.9 24.97L487 37.09C515.1 65.21 515.1 110.8 487 138.9L289.8 336.2C281.1 344.8 270.4 351.1 258.6 354.5L158.6 383.1C150.2 385.5 141.2 383.1 135 376.1C128.9 370.8 126.5 361.8 128.9 353.4L157.5 253.4C160.9 241.6 167.2 230.9 175.8 222.2L373.1 24.97zM440.1 58.91C431.6 49.54 416.4 49.54 407 58.91L377.9 88L424 134.1L453.1 104.1C462.5 95.6 462.5 80.4 453.1 71.03L440.1 58.91zM203.7 266.6L186.9 325.1L245.4 308.3C249.4 307.2 252.9 305.1 255.8 302.2L390.1 168L344 121.9L209.8 256.2C206.9 259.1 204.8 262.6 203.7 266.6zM200 64C213.3 64 224 74.75 224 88C224 101.3 213.3 112 200 112H88C65.91 112 48 129.9 48 152V424C48 446.1 65.91 464 88 464H360C382.1 464 400 446.1 400 424V312C400 298.7 410.7 288 424 288C437.3 288 448 298.7 448 312V424C448 472.6 408.6 512 360 512H88C39.4 512 0 472.6 0 424V152C0 103.4 39.4 64 88 64H200z"/>
  </symbol>
  <symbol id="rectangle-list" viewBox="0 0 576 512">
    <path d="M128 192C110.3 192 96 177.7 96 160C96 142.3 110.3 128 128 128C145.7 128 160 142.3 160 160C160 177.7 145.7 192 128 192zM200 160C200 146.7 210.7 136 224 136H448C461.3 136 472 146.7 472 160C472 173.3 461.3 184 448 184H224C210.7 184 200 173.3 200 160zM200 256C200 242.7 210.7 232 224 232H448C461.3 232 472 242.7 472 256C472 269.3 461.3 280 448 280H224C210.7 280 200 269.3 200 256zM200 352C200 338.7 210.7 328 224 328H448C461.3 328 472 338.7 472 352C472 365.3 461.3 376 448 376H224C210.7 376 200 365.3 200 352zM128 224C145.7 224 160 238.3 160 256C160 273.7 145.7 288 128 288C110.3 288 96 273.7 96 256C96 238.3 110.3 224 128 224zM128 384C110.3 384 96 369.7 96 352C96 334.3 110.3 320 128 320C145.7 320 160 334.3 160 352C160 369.7 145.7 384 128 384zM0 96C0 60.65 28.65 32 64 32H512C547.3 32 576 60.65 576 96V416C576 451.3 547.3 480 512 480H64C28.65 480 0 451.3 0 416V96zM48 96V416C48 424.8 55.16 432 64 432H512C520.8 432 528 424.8 528 416V96C528 87.16 520.8 80 512 80H64C55.16 80 48 87.16 48 96z"/>
  </symbol>
  <symbol id="star" viewBox="0 0 576 512">
    <path d="M287.9 0C297.1 0 305.5 5.25 309.5 13.52L378.1 154.8L531.4 177.5C540.4 178.8 547.8 185.1 550.7 193.7C553.5 202.4 551.2 211.9 544.8 218.2L433.6 328.4L459.9 483.9C461.4 492.9 457.7 502.1 450.2 507.4C442.8 512.7 432.1 513.4 424.9 509.1L287.9 435.9L150.1 509.1C142.9 513.4 133.1 512.7 125.6 507.4C118.2 502.1 114.5 492.9 115.1 483.9L142.2 328.4L31.11 218.2C24.65 211.9 22.36 202.4 25.2 193.7C28.03 185.1 35.5 178.8 44.49 177.5L197.7 154.8L266.3 13.52C270.4 5.249 278.7 0 287.9 0L287.9 0zM287.9 78.95L235.4 187.2C231.9 194.3 225.1 199.3 217.3 200.5L98.98 217.9L184.9 303C190.4 308.5 192.9 316.4 191.6 324.1L171.4 443.7L276.6 387.5C283.7 383.7 292.2 383.7 299.2 387.5L404.4 443.7L384.2 324.1C382.9 316.4 385.5 308.5 391 303L476.9 217.9L358.6 200.5C350.7 199.3 343.9 194.3 340.5 187.2L287.9 78.95z"/>
  </symbol>
  <symbol id="sun" viewBox="0 0 512 512">
    <path d="M505.2 324.8l-47.73-68.78l47.75-68.81c7.359-10.62 8.797-24.12 3.844-36.06c-4.969-11.94-15.52-20.44-28.22-22.72l-82.39-14.88l-14.89-82.41c-2.281-12.72-10.76-23.25-22.69-28.22c-11.97-4.936-25.42-3.498-36.12 3.844L256 54.49L187.2 6.709C176.5-.6016 163.1-2.039 151.1 2.896c-11.92 4.971-20.4 15.5-22.7 28.19l-14.89 82.44L31.15 128.4C18.42 130.7 7.854 139.2 2.9 151.2C-2.051 163.1-.5996 176.6 6.775 187.2l47.73 68.78l-47.75 68.81c-7.359 10.62-8.795 24.12-3.844 36.06c4.969 11.94 15.52 20.44 28.22 22.72l82.39 14.88l14.89 82.41c2.297 12.72 10.78 23.25 22.7 28.22c11.95 4.906 25.44 3.531 36.09-3.844L256 457.5l68.83 47.78C331.3 509.7 338.8 512 346.3 512c4.906 0 9.859-.9687 14.56-2.906c11.92-4.969 20.4-15.5 22.7-28.19l14.89-82.44l82.37-14.88c12.73-2.281 23.3-10.78 28.25-22.75C514.1 348.9 512.6 335.4 505.2 324.8zM456.8 339.2l-99.61 18l-18 99.63L256 399.1L172.8 456.8l-18-99.63l-99.61-18L112.9 255.1L55.23 172.8l99.61-18l18-99.63L256 112.9l83.15-57.75l18.02 99.66l99.61 18L399.1 255.1L456.8 339.2zM256 143.1c-61.85 0-111.1 50.14-111.1 111.1c0 61.85 50.15 111.1 111.1 111.1s111.1-50.14 111.1-111.1C367.1 194.1 317.8 143.1 256 143.1zM256 319.1c-35.28 0-63.99-28.71-63.99-63.99S220.7 192 256 192s63.99 28.71 63.99 63.1S291.3 319.1 256 319.1z"/>
  </symbol>
  <symbol id="window-maximize" viewBox="0 0 512 512">
    <path d="M7.724 65.49C13.36 55.11 21.79 46.47 32 40.56C39.63 36.15 48.25 33.26 57.46 32.33C59.61 32.11 61.79 32 64 32H448C483.3 32 512 60.65 512 96V416C512 451.3 483.3 480 448 480H64C28.65 480 0 451.3 0 416V96C0 93.79 .112 91.61 .3306 89.46C1.204 80.85 3.784 72.75 7.724 65.49V65.49zM48 416C48 424.8 55.16 432 64 432H448C456.8 432 464 424.8 464 416V224H48V416z"/>
  </symbol>
  <symbol id="window-minimize" viewBox="0 0 512 512">
    <path d="M0 456C0 442.7 10.75 432 24 432H488C501.3 432 512 442.7 512 456C512 469.3 501.3 480 488 480H24C10.75 480 0 469.3 0 456z"/>
  </symbol>
  <symbol id="window-restore" viewBox="0 0 512 512">
    <path d="M432 48H208C190.3 48 176 62.33 176 80V96H128V80C128 35.82 163.8 0 208 0H432C476.2 0 512 35.82 512 80V304C512 348.2 476.2 384 432 384H416V336H432C449.7 336 464 321.7 464 304V80C464 62.33 449.7 48 432 48zM320 128C355.3 128 384 156.7 384 192V448C384 483.3 355.3 512 320 512H64C28.65 512 0 483.3 0 448V192C0 156.7 28.65 128 64 128H320zM64 464H320C328.8 464 336 456.8 336 448V256H48V448C48 456.8 55.16 464 64 464z"/>
  </symbol>
</svg>
