<?xml version="1.0" encoding="UTF-8"?>
<!--!
Font Awesome Free 6.0.0 by @fontawesome - https://fontawesome.com
License - https://fontawesome.com/license/free (Icons: CC BY 4.0, Fonts: SIL OFL 1.1, Code: MIT License)
Copyright 2022 Fonticons, Inc.
-->
<svg xmlns="http://www.w3.org/2000/svg" style="display: none;">
  <symbol id="arrow-down-a-z" viewBox="0 0 512 512">
    <path d="M239.6 373.1c11.94-13.05 11.06-33.31-1.969-45.27c-13.55-12.42-33.76-10.52-45.22 1.973L160 366.1V64.03c0-17.7-14.33-32.03-32-32.03S96 46.33 96 64.03v302l-32.4-35.39C51.64 317.7 31.39 316.7 18.38 328.7c-13.03 11.95-13.9 32.22-1.969 45.27l87.1 96.09c12.12 13.26 35.06 13.26 47.19 0L239.6 373.1zM448 416h-50.75l73.38-73.38c9.156-9.156 11.89-22.91 6.938-34.88S460.9 288 447.1 288H319.1C302.3 288 288 302.3 288 320s14.33 32 32 32h50.75l-73.38 73.38c-9.156 9.156-11.89 22.91-6.938 34.88S307.1 480 319.1 480h127.1C465.7 480 480 465.7 480 448S465.7 416 448 416zM492.6 209.3l-79.99-160.1c-10.84-21.81-46.4-21.81-57.24 0L275.4 209.3c-7.906 15.91-1.5 35.24 14.31 43.19c15.87 7.922 35.04 1.477 42.93-14.4l7.154-14.39h88.43l7.154 14.39c6.174 12.43 23.97 23.87 42.93 14.4C494.1 244.6 500.5 225.2 492.6 209.3zM367.8 167.4L384 134.7l16.22 32.63H367.8z"/>
  </symbol>
  <symbol id="arrow-pointer" viewBox="0 0 320 512">
    <path d="M318.4 304.5c-3.531 9.344-12.47 15.52-22.45 15.52h-105l45.15 94.82c9.496 19.94 1.031 43.8-18.91 53.31c-19.95 9.504-43.82 1.035-53.32-18.91L117.3 351.3l-75 88.25c-4.641 5.469-11.37 8.453-18.28 8.453c-2.781 0-5.578-.4844-8.281-1.469C6.281 443.1 0 434.1 0 423.1V56.02c0-9.438 5.531-18.03 14.12-21.91C22.75 30.26 32.83 31.77 39.87 37.99l271.1 240C319.4 284.6 321.1 295.1 318.4 304.5z"/>
  </symbol>
  <symbol id="asterisk" viewBox="0 0 448 512">
    <path d="M417.1 368c-5.937 10.27-16.69 16-27.75 16c-5.422 0-10.92-1.375-15.97-4.281L256 311.4V448c0 17.67-14.33 32-31.1 32S192 465.7 192 448V311.4l-118.3 68.29C68.67 382.6 63.17 384 57.75 384c-11.06 0-21.81-5.734-27.75-16c-8.828-15.31-3.594-34.88 11.72-43.72L159.1 256L41.72 187.7C26.41 178.9 21.17 159.3 29.1 144C36.63 132.5 49.26 126.7 61.65 128.2C65.78 128.7 69.88 130.1 73.72 132.3L192 200.6V64c0-17.67 14.33-32 32-32S256 46.33 256 64v136.6l118.3-68.29c3.838-2.213 7.939-3.539 12.07-4.051C398.7 126.7 411.4 132.5 417.1 144c8.828 15.31 3.594 34.88-11.72 43.72L288 256l118.3 68.28C421.6 333.1 426.8 352.7 417.1 368z"/>
  </symbol>
  <symbol id="ban" viewBox="0 0 512 512">
    <path d="M512 256C512 397.4 397.4 512 256 512C114.6 512 0 397.4 0 256C0 114.6 114.6 0 256 0C397.4 0 512 114.6 512 256zM99.5 144.8C77.15 176.1 64 214.5 64 256C64 362 149.1 448 256 448C297.5 448 335.9 434.9 367.2 412.5L99.5 144.8zM448 256C448 149.1 362 64 256 64C214.5 64 176.1 77.15 144.8 99.5L412.5 367.2C434.9 335.9 448 297.5 448 256V256z"/>
  </symbol>
  <symbol id="bars" viewBox="0 0 448 512">
    <path d="M0 96C0 78.33 14.33 64 32 64H416C433.7 64 448 78.33 448 96C448 113.7 433.7 128 416 128H32C14.33 128 0 113.7 0 96zM0 256C0 238.3 14.33 224 32 224H416C433.7 224 448 238.3 448 256C448 273.7 433.7 288 416 288H32C14.33 288 0 273.7 0 256zM416 448H32C14.33 448 0 433.7 0 416C0 398.3 14.33 384 32 384H416C433.7 384 448 398.3 448 416C448 433.7 433.7 448 416 448z"/>
  </symbol>
  <symbol id="check" viewBox="0 0 448 512">
    <path d="M438.6 105.4C451.1 117.9 451.1 138.1 438.6 150.6L182.6 406.6C170.1 419.1 149.9 419.1 137.4 406.6L9.372 278.6C-3.124 266.1-3.124 245.9 9.372 233.4C21.87 220.9 42.13 220.9 54.63 233.4L159.1 338.7L393.4 105.4C405.9 92.88 426.1 92.88 438.6 105.4H438.6z"/>
  </symbol>
  <symbol id="circle" viewBox="0 0 512 512">
    <path d="M512 256C512 397.4 397.4 512 256 512C114.6 512 0 397.4 0 256C0 114.6 114.6 0 256 0C397.4 0 512 114.6 512 256z"/>
  </symbol>
  <symbol id="circle-arrow-down" viewBox="0 0 512 512">
    <path d="M256 0C114.6 0 0 114.6 0 256c0 141.4 114.6 256 256 256s256-114.6 256-256C512 114.6 397.4 0 256 0zM382.6 302.6l-103.1 103.1C270.7 414.6 260.9 416 256 416c-4.881 0-14.65-1.391-22.65-9.398L129.4 302.6c-12.5-12.5-12.5-32.75 0-45.25s32.75-12.5 45.25 0L224 306.8V128c0-17.69 14.33-32 32-32s32 14.31 32 32v178.8l49.38-49.38c12.5-12.5 32.75-12.5 45.25 0S395.1 290.1 382.6 302.6z"/>
  </symbol>
  <symbol id="circle-arrow-left" viewBox="0 0 512 512">
    <path d="M256 0C114.6 0 0 114.6 0 256c0 141.4 114.6 256 256 256s256-114.6 256-256C512 114.6 397.4 0 256 0zM384 288H205.3l49.38 49.38c12.5 12.5 12.5 32.75 0 45.25s-32.75 12.5-45.25 0L105.4 278.6C97.4 270.7 96 260.9 96 256c0-4.883 1.391-14.66 9.398-22.65l103.1-103.1c12.5-12.5 32.75-12.5 45.25 0s12.5 32.75 0 45.25L205.3 224H384c17.69 0 32 14.33 32 32S401.7 288 384 288z"/>
  </symbol>
  <symbol id="circle-arrow-right" viewBox="0 0 512 512">
    <path d="M256 0C114.6 0 0 114.6 0 256c0 141.4 114.6 256 256 256s256-114.6 256-256C512 114.6 397.4 0 256 0zM406.6 278.6l-103.1 103.1c-12.5 12.5-32.75 12.5-45.25 0s-12.5-32.75 0-45.25L306.8 288H128C110.3 288 96 273.7 96 256s14.31-32 32-32h178.8l-49.38-49.38c-12.5-12.5-12.5-32.75 0-45.25s32.75-12.5 45.25 0l103.1 103.1C414.6 241.3 416 251.1 416 256C416 260.9 414.6 270.7 406.6 278.6z"/>
  </symbol>
  <symbol id="circle-arrow-up" viewBox="0 0 512 512">
    <path d="M256 0C114.6 0 0 114.6 0 256c0 141.4 114.6 256 256 256s256-114.6 256-256C512 114.6 397.4 0 256 0zM382.6 254.6c-12.5 12.5-32.75 12.5-45.25 0L288 205.3V384c0 17.69-14.33 32-32 32s-32-14.31-32-32V205.3L174.6 254.6c-12.5 12.5-32.75 12.5-45.25 0s-12.5-32.75 0-45.25l103.1-103.1C241.3 97.4 251.1 96 256 96c4.881 0 14.65 1.391 22.65 9.398l103.1 103.1C395.1 221.9 395.1 242.1 382.6 254.6z"/>
  </symbol>
  <symbol id="circle-check" viewBox="0 0 512 512">
    <path d="M0 256C0 114.6 114.6 0 256 0C397.4 0 512 114.6 512 256C512 397.4 397.4 512 256 512C114.6 512 0 397.4 0 256zM371.8 211.8C382.7 200.9 382.7 183.1 371.8 172.2C360.9 161.3 343.1 161.3 332.2 172.2L224 280.4L179.8 236.2C168.9 225.3 151.1 225.3 140.2 236.2C129.3 247.1 129.3 264.9 140.2 275.8L204.2 339.8C215.1 350.7 232.9 350.7 243.8 339.8L371.8 211.8z"/>
  </symbol>
  <symbol id="circle-chevron-down" viewBox="0 0 512 512">
    <path d="M256 0C114.6 0 0 114.6 0 256c0 141.4 114.6 256 256 256s256-114.6 256-256C512 114.6 397.4 0 256 0zM390.6 246.6l-112 112C272.4 364.9 264.2 368 256 368s-16.38-3.125-22.62-9.375l-112-112c-12.5-12.5-12.5-32.75 0-45.25s32.75-12.5 45.25 0L256 290.8l89.38-89.38c12.5-12.5 32.75-12.5 45.25 0S403.1 234.1 390.6 246.6z"/>
  </symbol>
  <symbol id="circle-chevron-left" viewBox="0 0 512 512">
    <path d="M256 0C114.6 0 0 114.6 0 256c0 141.4 114.6 256 256 256s256-114.6 256-256C512 114.6 397.4 0 256 0zM310.6 345.4c12.5 12.5 12.5 32.75 0 45.25s-32.75 12.5-45.25 0l-112-112C147.1 272.4 144 264.2 144 256s3.125-16.38 9.375-22.62l112-112c12.5-12.5 32.75-12.5 45.25 0s12.5 32.75 0 45.25L221.3 256L310.6 345.4z"/>
  </symbol>
  <symbol id="circle-chevron-right" viewBox="0 0 512 512">
    <path d="M256 0C114.6 0 0 114.6 0 256c0 141.4 114.6 256 256 256s256-114.6 256-256C512 114.6 397.4 0 256 0zM358.6 278.6l-112 112c-12.5 12.5-32.75 12.5-45.25 0s-12.5-32.75 0-45.25L290.8 256L201.4 166.6c-12.5-12.5-12.5-32.75 0-45.25s32.75-12.5 45.25 0l112 112C364.9 239.6 368 247.8 368 256S364.9 272.4 358.6 278.6z"/>
  </symbol>
  <symbol id="circle-chevron-up" viewBox="0 0 512 512">
    <path d="M256 0C114.6 0 0 114.6 0 256c0 141.4 114.6 256 256 256s256-114.6 256-256C512 114.6 397.4 0 256 0zM390.6 310.6c-12.5 12.5-32.75 12.5-45.25 0L256 221.3L166.6 310.6c-12.5 12.5-32.75 12.5-45.25 0s-12.5-32.75 0-45.25l112-112C239.6 147.1 247.8 144 256 144s16.38 3.125 22.62 9.375l112 112C403.1 277.9 403.1 298.1 390.6 310.6z"/>
  </symbol>
  <symbol id="circle-dollar-to-slot" viewBox="0 0 512 512">
    <path d="M326.7 403.7C304.7 411.6 280.8 416 256 416C231.2 416 207.3 411.6 185.3 403.7C184.1 403.6 184.7 403.5 184.5 403.4C154.4 392.4 127.6 374.6 105.9 352C70.04 314.6 48 263.9 48 208C48 93.12 141.1 0 256 0C370.9 0 464 93.12 464 208C464 263.9 441.1 314.6 406.1 352C405.1 353 404.1 354.1 403.1 355.1C381.7 376.4 355.7 393.2 326.7 403.7L326.7 403.7zM235.9 111.1V118C230.3 119.2 224.1 120.9 220 123.1C205.1 129.9 192.1 142.5 188.9 160.8C187.1 171 188.1 180.9 192.3 189.8C196.5 198.6 203 204.8 209.6 209.3C221.2 217.2 236.5 221.8 248.2 225.3L250.4 225.9C264.4 230.2 273.8 233.3 279.7 237.6C282.2 239.4 283.1 240.8 283.4 241.7C283.8 242.5 284.4 244.3 283.7 248.3C283.1 251.8 281.2 254.8 275.7 257.1C269.6 259.7 259.7 261 246.9 259C240.9 258 230.2 254.4 220.7 251.2C218.5 250.4 216.3 249.7 214.3 249C203.8 245.5 192.5 251.2 189 261.7C185.5 272.2 191.2 283.5 201.7 286.1C202.9 287.4 204.4 287.9 206.1 288.5C213.1 291.2 226.4 295.4 235.9 297.6V304C235.9 315.1 244.9 324.1 255.1 324.1C267.1 324.1 276.1 315.1 276.1 304V298.5C281.4 297.5 286.6 295.1 291.4 293.9C307.2 287.2 319.8 274.2 323.1 255.2C324.9 244.8 324.1 234.8 320.1 225.7C316.2 216.7 309.9 210.1 303.2 205.3C291.1 196.4 274.9 191.6 262.8 187.9L261.1 187.7C247.8 183.4 238.2 180.4 232.1 176.2C229.5 174.4 228.7 173.2 228.5 172.7C228.3 172.3 227.7 171.1 228.3 167.7C228.7 165.7 230.2 162.4 236.5 159.6C242.1 156.7 252.9 155.1 265.1 156.1C269.5 157.7 283 160.3 286.9 161.3C297.5 164.2 308.5 157.8 311.3 147.1C314.2 136.5 307.8 125.5 297.1 122.7C292.7 121.5 282.7 119.5 276.1 118.3V112C276.1 100.9 267.1 91.9 256 91.9C244.9 91.9 235.9 100.9 235.9 112V111.1zM48 352H63.98C83.43 377.9 108 399.7 136.2 416H64V448H448V416H375.8C403.1 399.7 428.6 377.9 448 352H464C490.5 352 512 373.5 512 400V464C512 490.5 490.5 512 464 512H48C21.49 512 0 490.5 0 464V400C0 373.5 21.49 352 48 352H48z"/>
  </symbol>
  <symbol id="circle-dot" viewBox="0 0 512 512">
    <path d="M0 256C0 114.6 114.6 0 256 0C397.4 0 512 114.6 512 256C512 397.4 397.4 512 256 512C114.6 512 0 397.4 0 256zM256 352C309 352 352 309 352 256C352 202.1 309 160 256 160C202.1 160 160 202.1 160 256C160 309 202.1 352 256 352z"/>
  </symbol>
  <symbol id="circle-down" viewBox="0 0 512 512">
    <path d="M256 512c141.4 0 256-114.6 256-256s-114.6-256-256-256C114.6 0 0 114.6 0 256S114.6 512 256 512zM129.2 265.9C131.7 259.9 137.5 256 144 256h64V160c0-17.67 14.33-32 32-32h32c17.67 0 32 14.33 32 32v96h64c6.469 0 12.31 3.891 14.78 9.875c2.484 5.984 1.109 12.86-3.469 17.44l-112 112c-6.248 6.248-16.38 6.248-22.62 0l-112-112C128.1 278.7 126.7 271.9 129.2 265.9z"/>
  </symbol>
  <symbol id="circle-exclamation" viewBox="0 0 512 512">
    <path d="M256 0C114.6 0 0 114.6 0 256s114.6 256 256 256s256-114.6 256-256S397.4 0 256 0zM232 152C232 138.8 242.8 128 256 128s24 10.75 24 24v128c0 13.25-10.75 24-24 24S232 293.3 232 280V152zM256 400c-17.36 0-31.44-14.08-31.44-31.44c0-17.36 14.07-31.44 31.44-31.44s31.44 14.08 31.44 31.44C287.4 385.9 273.4 400 256 400z"/>
  </symbol>
  <symbol id="circle-h" viewBox="0 0 512 512">
    <path d="M256 0C114.6 0 0 114.6 0 256s114.6 256 256 256s256-114.6 256-256S397.4 0 256 0zM368 360c0 13.25-10.75 24-24 24S320 373.3 320 360v-80H192v80C192 373.3 181.3 384 168 384S144 373.3 144 360v-208C144 138.8 154.8 128 168 128S192 138.8 192 152v80h128v-80C320 138.8 330.8 128 344 128s24 10.75 24 24V360z"/>
  </symbol>
  <symbol id="circle-half-stroke" viewBox="0 0 512 512">
    <path d="M512 256C512 397.4 397.4 512 256 512C114.6 512 0 397.4 0 256C0 114.6 114.6 0 256 0C397.4 0 512 114.6 512 256zM256 64V448C362 448 448 362 448 256C448 149.1 362 64 256 64z"/>
  </symbol>
  <symbol id="circle-info" viewBox="0 0 512 512">
    <path d="M256 0C114.6 0 0 114.6 0 256s114.6 256 256 256s256-114.6 256-256S397.4 0 256 0zM256 128c17.67 0 32 14.33 32 32c0 17.67-14.33 32-32 32S224 177.7 224 160C224 142.3 238.3 128 256 128zM296 384h-80C202.8 384 192 373.3 192 360s10.75-24 24-24h16v-64H224c-13.25 0-24-10.75-24-24S210.8 224 224 224h32c13.25 0 24 10.75 24 24v88h16c13.25 0 24 10.75 24 24S309.3 384 296 384z"/>
  </symbol>
  <symbol id="circle-left" viewBox="0 0 512 512">
    <path d="M0 256c0 141.4 114.6 256 256 256s256-114.6 256-256c0-141.4-114.6-256-256-256S0 114.6 0 256zM246.1 129.2C252.1 131.7 256 137.5 256 144v64h96c17.67 0 32 14.33 32 32v32c0 17.67-14.33 32-32 32h-96v64c0 6.469-3.891 12.31-9.875 14.78c-5.984 2.484-12.86 1.109-17.44-3.469l-112-112c-6.248-6.248-6.248-16.38 0-22.62l112-112C233.3 128.1 240.1 126.7 246.1 129.2z"/>
  </symbol>
  <symbol id="circle-minus" viewBox="0 0 512 512">
    <path d="M0 256C0 114.6 114.6 0 256 0C397.4 0 512 114.6 512 256C512 397.4 397.4 512 256 512C114.6 512 0 397.4 0 256zM168 232C154.7 232 144 242.7 144 256C144 269.3 154.7 280 168 280H344C357.3 280 368 269.3 368 256C368 242.7 357.3 232 344 232H168z"/>
  </symbol>
  <symbol id="circle-notch" viewBox="0 0 512 512">
    <path d="M222.7 32.15C227.7 49.08 218.1 66.9 201.1 71.94C121.8 95.55 64 169.1 64 255.1C64 362 149.1 447.1 256 447.1C362 447.1 448 362 448 255.1C448 169.1 390.2 95.55 310.9 71.94C293.9 66.9 284.3 49.08 289.3 32.15C294.4 15.21 312.2 5.562 329.1 10.6C434.9 42.07 512 139.1 512 255.1C512 397.4 397.4 511.1 256 511.1C114.6 511.1 0 397.4 0 255.1C0 139.1 77.15 42.07 182.9 10.6C199.8 5.562 217.6 15.21 222.7 32.15V32.15z"/>
  </symbol>
  <symbol id="circle-pause" viewBox="0 0 512 512">
    <path d="M256 0C114.6 0 0 114.6 0 256s114.6 256 256 256s256-114.6 256-256S397.4 0 256 0zM224 191.1v128C224 337.7 209.7 352 192 352S160 337.7 160 320V191.1C160 174.3 174.3 160 191.1 160S224 174.3 224 191.1zM352 191.1v128C352 337.7 337.7 352 320 352S288 337.7 288 320V191.1C288 174.3 302.3 160 319.1 160S352 174.3 352 191.1z"/>
  </symbol>
  <symbol id="circle-play" viewBox="0 0 512 512">
    <path d="M512 256C512 397.4 397.4 512 256 512C114.6 512 0 397.4 0 256C0 114.6 114.6 0 256 0C397.4 0 512 114.6 512 256zM176 168V344C176 352.7 180.7 360.7 188.3 364.9C195.8 369.2 205.1 369 212.5 364.5L356.5 276.5C363.6 272.1 368 264.4 368 256C368 247.6 363.6 239.9 356.5 235.5L212.5 147.5C205.1 142.1 195.8 142.8 188.3 147.1C180.7 151.3 176 159.3 176 168V168z"/>
  </symbol>
  <symbol id="circle-plus" viewBox="0 0 512 512">
    <path d="M0 256C0 114.6 114.6 0 256 0C397.4 0 512 114.6 512 256C512 397.4 397.4 512 256 512C114.6 512 0 397.4 0 256zM256 368C269.3 368 280 357.3 280 344V280H344C357.3 280 368 269.3 368 256C368 242.7 357.3 232 344 232H280V168C280 154.7 269.3 144 256 144C242.7 144 232 154.7 232 168V232H168C154.7 232 144 242.7 144 256C144 269.3 154.7 280 168 280H232V344C232 357.3 242.7 368 256 368z"/>
  </symbol>
  <symbol id="circle-question" viewBox="0 0 512 512">
    <path d="M256 0C114.6 0 0 114.6 0 256s114.6 256 256 256s256-114.6 256-256S397.4 0 256 0zM256 400c-18 0-32-14-32-32s13.1-32 32-32c17.1 0 32 14 32 32S273.1 400 256 400zM325.1 258L280 286V288c0 13-11 24-24 24S232 301 232 288V272c0-8 4-16 12-21l57-34C308 213 312 206 312 198C312 186 301.1 176 289.1 176h-51.1C225.1 176 216 186 216 198c0 13-11 24-24 24s-24-11-24-24C168 159 199 128 237.1 128h51.1C329 128 360 159 360 198C360 222 347 245 325.1 258z"/>
  </symbol>
  <symbol id="circle-radiation" viewBox="0 0 512 512">
    <path d="M226.4 208.6L184.8 141.9C179.6 133.7 168.3 132 160.7 138.2C130.8 162.3 110.1 197.4 105.1 237.4C103.9 247.2 111.2 256 121 256H200C200 236 210.6 218.6 226.4 208.6zM256 288c17.67 0 32-14.33 32-32s-14.33-32-32-32C238.3 224 224 238.3 224 256S238.3 288 256 288zM285.6 303.3C276.1 308.7 266.9 312 256 312c-10.89 0-20.98-3.252-29.58-8.65l-41.74 66.8c-5.211 8.338-1.613 19.07 7.27 23.29C211.4 402.7 233.1 408 256 408c22.97 0 44.64-5.334 64.12-14.59c8.883-4.219 12.48-14.95 7.262-23.29L285.6 303.3zM351.4 138.2c-7.604-6.145-18.86-4.518-24.04 3.77l-41.71 66.67C301.4 218.6 312 236 312 256h78.96c9.844 0 17.11-8.791 15.91-18.56C401.9 197.5 381.3 162.4 351.4 138.2zM256 16C123.4 16 16 123.4 16 256s107.4 240 240 240c132.6 0 240-107.4 240-240S388.6 16 256 16zM256 432c-97.05 0-176-78.99-176-176S158.1 80 256 80s176 78.95 176 176S353 432 256 432z"/>
  </symbol>
  <symbol id="circle-right" viewBox="0 0 512 512">
    <path d="M512 256c0-141.4-114.6-256-256-256S0 114.6 0 256c0 141.4 114.6 256 256 256S512 397.4 512 256zM265.9 382.8C259.9 380.3 256 374.5 256 368v-64H160c-17.67 0-32-14.33-32-32v-32c0-17.67 14.33-32 32-32h96v-64c0-6.469 3.891-12.31 9.875-14.78c5.984-2.484 12.86-1.109 17.44 3.469l112 112c6.248 6.248 6.248 16.38 0 22.62l-112 112C278.7 383.9 271.9 385.3 265.9 382.8z"/>
  </symbol>
  <symbol id="circle-stop" viewBox="0 0 512 512">
    <path d="M256 0C114.6 0 0 114.6 0 256c0 141.4 114.6 256 256 256s256-114.6 256-256C512 114.6 397.4 0 256 0zM352 328c0 13.2-10.8 24-24 24h-144C170.8 352 160 341.2 160 328v-144C160 170.8 170.8 160 184 160h144C341.2 160 352 170.8 352 184V328z"/>
  </symbol>
  <symbol id="circle-up" viewBox="0 0 512 512">
    <path d="M256 0C114.6 0 0 114.6 0 256s114.6 256 256 256c141.4 0 256-114.6 256-256S397.4 0 256 0zM382.8 246.1C380.3 252.1 374.5 256 368 256h-64v96c0 17.67-14.33 32-32 32h-32c-17.67 0-32-14.33-32-32V256h-64C137.5 256 131.7 252.1 129.2 246.1C126.7 240.1 128.1 233.3 132.7 228.7l112-112c6.248-6.248 16.38-6.248 22.62 0l112 112C383.9 233.3 385.3 240.1 382.8 246.1z"/>
  </symbol>
  <symbol id="circle-user" viewBox="0 0 512 512">
    <path d="M256 0C114.6 0 0 114.6 0 256s114.6 256 256 256s256-114.6 256-256S397.4 0 256 0zM256 128c39.77 0 72 32.24 72 72S295.8 272 256 272c-39.76 0-72-32.24-72-72S216.2 128 256 128zM256 448c-52.93 0-100.9-21.53-135.7-56.29C136.5 349.9 176.5 320 224 320h64c47.54 0 87.54 29.88 103.7 71.71C356.9 426.5 308.9 448 256 448z"/>
  </symbol>
  <symbol id="circle-xmark" viewBox="0 0 512 512">
    <path d="M0 256C0 114.6 114.6 0 256 0C397.4 0 512 114.6 512 256C512 397.4 397.4 512 256 512C114.6 512 0 397.4 0 256zM175 208.1L222.1 255.1L175 303C165.7 312.4 165.7 327.6 175 336.1C184.4 346.3 199.6 346.3 208.1 336.1L255.1 289.9L303 336.1C312.4 346.3 327.6 346.3 336.1 336.1C346.3 327.6 346.3 312.4 336.1 303L289.9 255.1L336.1 208.1C346.3 199.6 346.3 184.4 336.1 175C327.6 165.7 312.4 165.7 303 175L255.1 222.1L208.1 175C199.6 165.7 184.4 165.7 175 175C165.7 184.4 165.7 199.6 175 208.1V208.1z"/>
  </symbol>
  <symbol id="code" viewBox="0 0 640 512">
    <path d="M414.8 40.79L286.8 488.8C281.9 505.8 264.2 515.6 247.2 510.8C230.2 505.9 220.4 488.2 225.2 471.2L353.2 23.21C358.1 6.216 375.8-3.624 392.8 1.232C409.8 6.087 419.6 23.8 414.8 40.79H414.8zM518.6 121.4L630.6 233.4C643.1 245.9 643.1 266.1 630.6 278.6L518.6 390.6C506.1 403.1 485.9 403.1 473.4 390.6C460.9 378.1 460.9 357.9 473.4 345.4L562.7 256L473.4 166.6C460.9 154.1 460.9 133.9 473.4 121.4C485.9 108.9 506.1 108.9 518.6 121.4V121.4zM166.6 166.6L77.25 256L166.6 345.4C179.1 357.9 179.1 378.1 166.6 390.6C154.1 403.1 133.9 403.1 121.4 390.6L9.372 278.6C-3.124 266.1-3.124 245.9 9.372 233.4L121.4 121.4C133.9 108.9 154.1 108.9 166.6 121.4C179.1 133.9 179.1 154.1 166.6 166.6V166.6z"/>
  </symbol>
  <symbol id="code-merge" viewBox="0 0 448 512">
    <path d="M208 239.1H294.7C307 211.7 335.2 191.1 368 191.1C412.2 191.1 448 227.8 448 271.1C448 316.2 412.2 352 368 352C335.2 352 307 332.3 294.7 303.1H208C171.1 303.1 138.7 292.1 112 272V358.7C140.3 371 160 399.2 160 432C160 476.2 124.2 512 80 512C35.82 512 0 476.2 0 432C0 399.2 19.75 371 48 358.7V153.3C19.75 140.1 0 112.8 0 80C0 35.82 35.82 0 80 0C124.2 0 160 35.82 160 80C160 112.6 140.5 140.7 112.4 153.2C117 201.9 158.1 240 208 240V239.1zM80 103.1C93.25 103.1 104 93.25 104 79.1C104 66.74 93.25 55.1 80 55.1C66.75 55.1 56 66.74 56 79.1C56 93.25 66.75 103.1 80 103.1zM80 456C93.25 456 104 445.3 104 432C104 418.7 93.25 408 80 408C66.75 408 56 418.7 56 432C56 445.3 66.75 456 80 456zM368 247.1C354.7 247.1 344 258.7 344 271.1C344 285.3 354.7 295.1 368 295.1C381.3 295.1 392 285.3 392 271.1C392 258.7 381.3 247.1 368 247.1z"/>
  </symbol>
  <symbol id="cube" viewBox="0 0 512 512">
    <path d="M234.5 5.709C248.4 .7377 263.6 .7377 277.5 5.709L469.5 74.28C494.1 83.38 512 107.5 512 134.6V377.4C512 404.5 494.1 428.6 469.5 437.7L277.5 506.3C263.6 511.3 248.4 511.3 234.5 506.3L42.47 437.7C17 428.6 0 404.5 0 377.4V134.6C0 107.5 17 83.38 42.47 74.28L234.5 5.709zM256 65.98L82.34 128L256 190L429.7 128L256 65.98zM288 434.6L448 377.4V189.4L288 246.6V434.6z"/>
  </symbol>
  <symbol id="cubes" viewBox="0 0 576 512">
    <path d="M172.1 40.16L268.1 3.76C280.9-1.089 295.1-1.089 307.9 3.76L403.9 40.16C425.6 48.41 440 69.25 440 92.52V204.7C441.3 205.1 442.6 205.5 443.9 205.1L539.9 242.4C561.6 250.6 576 271.5 576 294.7V413.9C576 436.1 562.9 456.2 542.5 465.1L446.5 507.3C432.2 513.7 415.8 513.7 401.5 507.3L288 457.5L174.5 507.3C160.2 513.7 143.8 513.7 129.5 507.3L33.46 465.1C13.13 456.2 0 436.1 0 413.9V294.7C0 271.5 14.39 250.6 36.15 242.4L132.1 205.1C133.4 205.5 134.7 205.1 136 204.7V92.52C136 69.25 150.4 48.41 172.1 40.16V40.16zM290.8 48.64C289 47.95 286.1 47.95 285.2 48.64L206.8 78.35L287.1 109.5L369.2 78.35L290.8 48.64zM392 210.6V121L309.6 152.6V241.8L392 210.6zM154.8 250.9C153 250.2 150.1 250.2 149.2 250.9L70.81 280.6L152 311.7L233.2 280.6L154.8 250.9zM173.6 455.3L256 419.1V323.2L173.6 354.8V455.3zM342.8 280.6L424 311.7L505.2 280.6L426.8 250.9C425 250.2 422.1 250.2 421.2 250.9L342.8 280.6zM528 413.9V323.2L445.6 354.8V455.3L523.2 421.2C526.1 419.9 528 417.1 528 413.9V413.9z"/>
  </symbol>
  <symbol id="database" viewBox="0 0 448 512">
    <path d="M448 80V128C448 172.2 347.7 208 224 208C100.3 208 0 172.2 0 128V80C0 35.82 100.3 0 224 0C347.7 0 448 35.82 448 80zM393.2 214.7C413.1 207.3 433.1 197.8 448 186.1V288C448 332.2 347.7 368 224 368C100.3 368 0 332.2 0 288V186.1C14.93 197.8 34.02 207.3 54.85 214.7C99.66 230.7 159.5 240 224 240C288.5 240 348.3 230.7 393.2 214.7V214.7zM54.85 374.7C99.66 390.7 159.5 400 224 400C288.5 400 348.3 390.7 393.2 374.7C413.1 367.3 433.1 357.8 448 346.1V432C448 476.2 347.7 512 224 512C100.3 512 0 476.2 0 432V346.1C14.93 357.8 34.02 367.3 54.85 374.7z"/>
  </symbol>
  <symbol id="download" viewBox="0 0 512 512">
    <path d="M480 352h-133.5l-45.25 45.25C289.2 409.3 273.1 416 256 416s-33.16-6.656-45.25-18.75L165.5 352H32c-17.67 0-32 14.33-32 32v96c0 17.67 14.33 32 32 32h448c17.67 0 32-14.33 32-32v-96C512 366.3 497.7 352 480 352zM432 456c-13.2 0-24-10.8-24-24c0-13.2 10.8-24 24-24s24 10.8 24 24C456 445.2 445.2 456 432 456zM233.4 374.6C239.6 380.9 247.8 384 256 384s16.38-3.125 22.62-9.375l128-128c12.49-12.5 12.49-32.75 0-45.25c-12.5-12.5-32.76-12.5-45.25 0L288 274.8V32c0-17.67-14.33-32-32-32C238.3 0 224 14.33 224 32v242.8L150.6 201.4c-12.49-12.5-32.75-12.5-45.25 0c-12.49 12.5-12.49 32.75 0 45.25L233.4 374.6z"/>
  </symbol>
  <symbol id="dragon" viewBox="0 0 640 512">
    <path d="M18.43 255.8L192 224L100.8 292.6C90.67 302.8 97.8 320 112 320h222.7c-9.499-26.5-14.75-54.5-14.75-83.38V194.2L200.3 106.8C176.5 90.88 145 92.75 123.3 111.2l-117.5 116.4C-6.562 238 2.436 258 18.43 255.8zM575.2 289.9l-100.7-50.25c-16.25-8.125-26.5-24.75-26.5-43V160h63.99l28.12 22.62C546.1 188.6 554.2 192 562.7 192h30.1c11.1 0 23.12-6.875 28.5-17.75l14.37-28.62c5.374-10.87 4.25-23.75-2.999-33.5l-74.49-99.37C552.1 4.75 543.5 0 533.5 0H296C288.9 0 285.4 8.625 290.4 13.62L351.1 64L292.4 88.75c-5.874 3-5.874 11.37 0 14.37L351.1 128l-.0011 108.6c0 72 35.99 139.4 95.99 179.4c-195.6 6.75-344.4 41-434.1 60.88c-8.124 1.75-13.87 9-13.87 17.38C.0463 504 8.045 512 17.79 512h499.1c63.24 0 119.6-47.5 122.1-110.8C642.3 354 617.1 310.9 575.2 289.9zM489.1 66.25l45.74 11.38c-2.75 11-12.5 18.88-24.12 18.25C497.7 95.25 484.8 83.38 489.1 66.25z"/>
  </symbol>
  <symbol id="eye-dropper" viewBox="0 0 512 512">
    <path d="M482.8 29.23C521.7 68.21 521.7 131.4 482.8 170.4L381.2 271.9L390.6 281.4C403.1 293.9 403.1 314.1 390.6 326.6C378.1 339.1 357.9 339.1 345.4 326.6L185.4 166.6C172.9 154.1 172.9 133.9 185.4 121.4C197.9 108.9 218.1 108.9 230.6 121.4L240.1 130.8L341.6 29.23C380.6-9.744 443.8-9.744 482.8 29.23L482.8 29.23zM55.43 323.3L176.1 202.6L221.4 247.9L100.7 368.6C97.69 371.6 96 375.6 96 379.9V416H132.1C136.4 416 140.4 414.3 143.4 411.3L264.1 290.6L309.4 335.9L188.7 456.6C173.7 471.6 153.3 480 132.1 480H89.69L49.75 506.6C37.06 515.1 20.16 513.4 9.373 502.6C-1.413 491.8-3.086 474.9 5.375 462.2L32 422.3V379.9C32 358.7 40.43 338.3 55.43 323.3L55.43 323.3z"/>
  </symbol>
  <symbol id="expand" viewBox="0 0 448 512">
    <path d="M128 32H32C14.31 32 0 46.31 0 64v96c0 17.69 14.31 32 32 32s32-14.31 32-32V96h64c17.69 0 32-14.31 32-32S145.7 32 128 32zM416 32h-96c-17.69 0-32 14.31-32 32s14.31 32 32 32h64v64c0 17.69 14.31 32 32 32s32-14.31 32-32V64C448 46.31 433.7 32 416 32zM128 416H64v-64c0-17.69-14.31-32-32-32s-32 14.31-32 32v96c0 17.69 14.31 32 32 32h96c17.69 0 32-14.31 32-32S145.7 416 128 416zM416 320c-17.69 0-32 14.31-32 32v64h-64c-17.69 0-32 14.31-32 32s14.31 32 32 32h96c17.69 0 32-14.31 32-32v-96C448 334.3 433.7 320 416 320z"/>
  </symbol>
  <symbol id="file-import" viewBox="0 0 512 512">
    <path d="M384 0v128h128L384 0zM352 128L352 0H176C149.5 0 128 21.49 128 48V288h174.1l-39.03-39.03c-9.375-9.375-9.375-24.56 0-33.94s24.56-9.375 33.94 0l80 80c9.375 9.375 9.375 24.56 0 33.94l-80 80c-9.375 9.375-24.56 9.375-33.94 0C258.3 404.3 256 398.2 256 392s2.344-12.28 7.031-16.97L302.1 336H128v128C128 490.5 149.5 512 176 512h288c26.51 0 48-21.49 48-48V160h-127.1C366.3 160 352 145.7 352 128zM24 288C10.75 288 0 298.7 0 312c0 13.25 10.75 24 24 24H128V288H24z"/>
  </symbol>
  <symbol id="filter" viewBox="0 0 512 512">
    <path d="M3.853 54.87C10.47 40.9 24.54 32 40 32H472C487.5 32 501.5 40.9 508.1 54.87C514.8 68.84 512.7 85.37 502.1 97.33L320 320.9V448C320 460.1 313.2 471.2 302.3 476.6C291.5 482 278.5 480.9 268.8 473.6L204.8 425.6C196.7 419.6 192 410.1 192 400V320.9L9.042 97.33C-.745 85.37-2.765 68.84 3.854 54.87L3.853 54.87z"/>
  </symbol>
  <symbol id="gear" viewBox="0 0 512 512">
    <path d="M495.9 166.6C499.2 175.2 496.4 184.9 489.6 191.2L446.3 230.6C447.4 238.9 448 247.4 448 256C448 264.6 447.4 273.1 446.3 281.4L489.6 320.8C496.4 327.1 499.2 336.8 495.9 345.4C491.5 357.3 486.2 368.8 480.2 379.7L475.5 387.8C468.9 398.8 461.5 409.2 453.4 419.1C447.4 426.2 437.7 428.7 428.9 425.9L373.2 408.1C359.8 418.4 344.1 427 329.2 433.6L316.7 490.7C314.7 499.7 307.7 506.1 298.5 508.5C284.7 510.8 270.5 512 255.1 512C241.5 512 227.3 510.8 213.5 508.5C204.3 506.1 197.3 499.7 195.3 490.7L182.8 433.6C167 427 152.2 418.4 138.8 408.1L83.14 425.9C74.3 428.7 64.55 426.2 58.63 419.1C50.52 409.2 43.12 398.8 36.52 387.8L31.84 379.7C25.77 368.8 20.49 357.3 16.06 345.4C12.82 336.8 15.55 327.1 22.41 320.8L65.67 281.4C64.57 273.1 64 264.6 64 256C64 247.4 64.57 238.9 65.67 230.6L22.41 191.2C15.55 184.9 12.82 175.3 16.06 166.6C20.49 154.7 25.78 143.2 31.84 132.3L36.51 124.2C43.12 113.2 50.52 102.8 58.63 92.95C64.55 85.8 74.3 83.32 83.14 86.14L138.8 103.9C152.2 93.56 167 84.96 182.8 78.43L195.3 21.33C197.3 12.25 204.3 5.04 213.5 3.51C227.3 1.201 241.5 0 256 0C270.5 0 284.7 1.201 298.5 3.51C307.7 5.04 314.7 12.25 316.7 21.33L329.2 78.43C344.1 84.96 359.8 93.56 373.2 103.9L428.9 86.14C437.7 83.32 447.4 85.8 453.4 92.95C461.5 102.8 468.9 113.2 475.5 124.2L480.2 132.3C486.2 143.2 491.5 154.7 495.9 166.6V166.6zM256 336C300.2 336 336 300.2 336 255.1C336 211.8 300.2 175.1 256 175.1C211.8 175.1 176 211.8 176 255.1C176 300.2 211.8 336 256 336z"/>
  </symbol>
  <symbol id="gears" viewBox="0 0 640 512">
    <path d="M286.3 155.1C287.4 161.9 288 168.9 288 175.1C288 183.1 287.4 190.1 286.3 196.9L308.5 216.7C315.5 223 318.4 232.1 314.7 241.7C312.4 246.1 309.9 252.2 307.1 257.2L304 262.6C300.1 267.6 297.7 272.4 294.2 277.1C288.5 284.7 278.5 287.2 269.5 284.2L241.2 274.9C230.5 283.8 218.3 290.9 205 295.9L198.1 324.9C197 334.2 189.8 341.6 180.4 342.8C173.7 343.6 166.9 344 160 344C153.1 344 146.3 343.6 139.6 342.8C130.2 341.6 122.1 334.2 121 324.9L114.1 295.9C101.7 290.9 89.5 283.8 78.75 274.9L50.53 284.2C41.54 287.2 31.52 284.7 25.82 277.1C22.28 272.4 18.98 267.5 15.94 262.5L12.92 257.2C10.13 252.2 7.592 247 5.324 241.7C1.62 232.1 4.458 223 11.52 216.7L33.7 196.9C32.58 190.1 31.1 183.1 31.1 175.1C31.1 168.9 32.58 161.9 33.7 155.1L11.52 135.3C4.458 128.1 1.62 119 5.324 110.3C7.592 104.1 10.13 99.79 12.91 94.76L15.95 89.51C18.98 84.46 22.28 79.58 25.82 74.89C31.52 67.34 41.54 64.83 50.53 67.79L78.75 77.09C89.5 68.25 101.7 61.13 114.1 56.15L121 27.08C122.1 17.8 130.2 10.37 139.6 9.231C146.3 8.418 153.1 8 160 8C166.9 8 173.7 8.418 180.4 9.23C189.8 10.37 197 17.8 198.1 27.08L205 56.15C218.3 61.13 230.5 68.25 241.2 77.09L269.5 67.79C278.5 64.83 288.5 67.34 294.2 74.89C297.7 79.56 300.1 84.42 304 89.44L307.1 94.83C309.9 99.84 312.4 105 314.7 110.3C318.4 119 315.5 128.1 308.5 135.3L286.3 155.1zM160 127.1C133.5 127.1 112 149.5 112 175.1C112 202.5 133.5 223.1 160 223.1C186.5 223.1 208 202.5 208 175.1C208 149.5 186.5 127.1 160 127.1zM484.9 478.3C478.1 479.4 471.1 480 464 480C456.9 480 449.9 479.4 443.1 478.3L423.3 500.5C416.1 507.5 407 510.4 398.3 506.7C393 504.4 387.8 501.9 382.8 499.1L377.4 496C372.4 492.1 367.6 489.7 362.9 486.2C355.3 480.5 352.8 470.5 355.8 461.5L365.1 433.2C356.2 422.5 349.1 410.3 344.1 397L315.1 390.1C305.8 389 298.4 381.8 297.2 372.4C296.4 365.7 296 358.9 296 352C296 345.1 296.4 338.3 297.2 331.6C298.4 322.2 305.8 314.1 315.1 313L344.1 306.1C349.1 293.7 356.2 281.5 365.1 270.8L355.8 242.5C352.8 233.5 355.3 223.5 362.9 217.8C367.6 214.3 372.5 210.1 377.5 207.9L382.8 204.9C387.8 202.1 392.1 199.6 398.3 197.3C407 193.6 416.1 196.5 423.3 203.5L443.1 225.7C449.9 224.6 456.9 224 464 224C471.1 224 478.1 224.6 484.9 225.7L504.7 203.5C511 196.5 520.1 193.6 529.7 197.3C535 199.6 540.2 202.1 545.2 204.9L550.5 207.9C555.5 210.1 560.4 214.3 565.1 217.8C572.7 223.5 575.2 233.5 572.2 242.5L562.9 270.8C571.8 281.5 578.9 293.7 583.9 306.1L612.9 313C622.2 314.1 629.6 322.2 630.8 331.6C631.6 338.3 632 345.1 632 352C632 358.9 631.6 365.7 630.8 372.4C629.6 381.8 622.2 389 612.9 390.1L583.9 397C578.9 410.3 571.8 422.5 562.9 433.2L572.2 461.5C575.2 470.5 572.7 480.5 565.1 486.2C560.4 489.7 555.6 492.1 550.6 496L545.2 499.1C540.2 501.9 534.1 504.4 529.7 506.7C520.1 510.4 511 507.5 504.7 500.5L484.9 478.3zM512 352C512 325.5 490.5 304 464 304C437.5 304 416 325.5 416 352C416 378.5 437.5 400 464 400C490.5 400 512 378.5 512 352z"/>
  </symbol>
  <symbol id="ghost" viewBox="0 0 384 512">
    <path d="M186.1 .1032c-105.1 3.126-186.1 94.75-186.1 199.9v264c0 14.25 17.3 21.38 27.3 11.25l24.95-18.5c6.625-5.001 16-4.001 21.5 2.25l43 48.31c6.25 6.251 16.37 6.251 22.62 0l40.62-45.81c6.375-7.251 17.62-7.251 24 0l40.63 45.81c6.25 6.251 16.38 6.251 22.62 0l43-48.31c5.5-6.251 14.88-7.251 21.5-2.25l24.95 18.5c10 10.13 27.3 3.002 27.3-11.25V192C384 83.98 294.9-3.147 186.1 .1032zM128 224c-17.62 0-31.1-14.38-31.1-32.01s14.38-32.01 31.1-32.01s32 14.38 32 32.01S145.6 224 128 224zM256 224c-17.62 0-32-14.38-32-32.01s14.38-32.01 32-32.01c17.62 0 32 14.38 32 32.01S273.6 224 256 224z"/>
  </symbol>
  <symbol id="hard-drive" viewBox="0 0 512 512">
    <path d="M464 288h-416C21.5 288 0 309.5 0 336v96C0 458.5 21.5 480 48 480h416c26.5 0 48-21.5 48-48v-96C512 309.5 490.5 288 464 288zM320 416c-17.62 0-32-14.38-32-32s14.38-32 32-32s32 14.38 32 32S337.6 416 320 416zM416 416c-17.62 0-32-14.38-32-32s14.38-32 32-32s32 14.38 32 32S433.6 416 416 416zM464 32h-416C21.5 32 0 53.5 0 80v192.4C13.41 262.3 29.92 256 48 256h416c18.08 0 34.59 6.254 48 16.41V80C512 53.5 490.5 32 464 32z"/>
  </symbol>
  <symbol id="hashtag" viewBox="0 0 448 512">
    <path d="M416 127.1h-58.23l9.789-58.74c2.906-17.44-8.875-33.92-26.3-36.83c-17.53-2.875-33.92 8.891-36.83 26.3L292.9 127.1H197.8l9.789-58.74c2.906-17.44-8.875-33.92-26.3-36.83c-17.53-2.875-33.92 8.891-36.83 26.3L132.9 127.1H64c-17.67 0-32 14.33-32 32C32 177.7 46.33 191.1 64 191.1h58.23l-21.33 128H32c-17.67 0-32 14.33-32 32c0 17.67 14.33 31.1 32 31.1h58.23l-9.789 58.74c-2.906 17.44 8.875 33.92 26.3 36.83C108.5 479.9 110.3 480 112 480c15.36 0 28.92-11.09 31.53-26.73l11.54-69.27h95.12l-9.789 58.74c-2.906 17.44 8.875 33.92 26.3 36.83C268.5 479.9 270.3 480 272 480c15.36 0 28.92-11.09 31.53-26.73l11.54-69.27H384c17.67 0 32-14.33 32-31.1c0-17.67-14.33-32-32-32h-58.23l21.33-128H416c17.67 0 32-14.32 32-31.1C448 142.3 433.7 127.1 416 127.1zM260.9 319.1H165.8L187.1 191.1h95.12L260.9 319.1z"/>
  </symbol>
  <symbol id="heart" viewBox="0 0 512 512">
    <path d="M0 190.9V185.1C0 115.2 50.52 55.58 119.4 44.1C164.1 36.51 211.4 51.37 244 84.02L256 96L267.1 84.02C300.6 51.37 347 36.51 392.6 44.1C461.5 55.58 512 115.2 512 185.1V190.9C512 232.4 494.8 272.1 464.4 300.4L283.7 469.1C276.2 476.1 266.3 480 256 480C245.7 480 235.8 476.1 228.3 469.1L47.59 300.4C17.23 272.1 .0003 232.4 .0003 190.9L0 190.9z"/>
  </symbol>
  <symbol id="image" viewBox="0 0 512 512">
    <path d="M447.1 32h-384C28.64 32-.0091 60.65-.0091 96v320c0 35.35 28.65 64 63.1 64h384c35.35 0 64-28.65 64-64V96C511.1 60.65 483.3 32 447.1 32zM111.1 96c26.51 0 48 21.49 48 48S138.5 192 111.1 192s-48-21.49-48-48S85.48 96 111.1 96zM446.1 407.6C443.3 412.8 437.9 416 432 416H82.01c-6.021 0-11.53-3.379-14.26-8.75c-2.73-5.367-2.215-11.81 1.334-16.68l70-96C142.1 290.4 146.9 288 152 288s9.916 2.441 12.93 6.574l32.46 44.51l93.3-139.1C293.7 194.7 298.7 192 304 192s10.35 2.672 13.31 7.125l128 192C448.6 396 448.9 402.3 446.1 407.6z"/>
  </symbol>
  <symbol id="infinity" viewBox="0 0 640 512">
    <path d="M494.9 96.01c-38.78 0-75.22 15.09-102.6 42.5L320 210.8L247.8 138.5c-27.41-27.41-63.84-42.5-102.6-42.5C65.11 96.01 0 161.1 0 241.1v29.75c0 80.03 65.11 145.1 145.1 145.1c38.78 0 75.22-15.09 102.6-42.5L320 301.3l72.23 72.25c27.41 27.41 63.84 42.5 102.6 42.5C574.9 416 640 350.9 640 270.9v-29.75C640 161.1 574.9 96.01 494.9 96.01zM202.5 328.3c-15.31 15.31-35.69 23.75-57.38 23.75C100.4 352 64 315.6 64 270.9v-29.75c0-44.72 36.41-81.13 81.14-81.13c21.69 0 42.06 8.438 57.38 23.75l72.23 72.25L202.5 328.3zM576 270.9c0 44.72-36.41 81.13-81.14 81.13c-21.69 0-42.06-8.438-57.38-23.75l-72.23-72.25l72.23-72.25c15.31-15.31 35.69-23.75 57.38-23.75C539.6 160 576 196.4 576 241.1V270.9z"/>
  </symbol>
  <symbol id="info" viewBox="0 0 192 512">
    <path d="M160 448h-32V224c0-17.69-14.33-32-32-32L32 192c-17.67 0-32 14.31-32 32s14.33 31.1 32 31.1h32v192H32c-17.67 0-32 14.31-32 32s14.33 32 32 32h128c17.67 0 32-14.31 32-32S177.7 448 160 448zM96 128c26.51 0 48-21.49 48-48S122.5 32.01 96 32.01s-48 21.49-48 48S69.49 128 96 128z"/>
  </symbol>
  <symbol id="key" viewBox="0 0 512 512">
    <path d="M282.3 343.7L248.1 376.1C244.5 381.5 238.4 384 232 384H192V424C192 437.3 181.3 448 168 448H128V488C128 501.3 117.3 512 104 512H24C10.75 512 0 501.3 0 488V408C0 401.6 2.529 395.5 7.029 391L168.3 229.7C162.9 212.8 160 194.7 160 176C160 78.8 238.8 0 336 0C433.2 0 512 78.8 512 176C512 273.2 433.2 352 336 352C317.3 352 299.2 349.1 282.3 343.7zM376 176C398.1 176 416 158.1 416 136C416 113.9 398.1 96 376 96C353.9 96 336 113.9 336 136C336 158.1 353.9 176 376 176z"/>
  </symbol>
  <symbol id="keyboard" viewBox="0 0 576 512">
    <path d="M512 448H64c-35.35 0-64-28.65-64-64V128c0-35.35 28.65-64 64-64h448c35.35 0 64 28.65 64 64v256C576 419.3 547.3 448 512 448zM128 180v-40C128 133.4 122.6 128 116 128h-40C69.38 128 64 133.4 64 140v40C64 186.6 69.38 192 76 192h40C122.6 192 128 186.6 128 180zM224 180v-40C224 133.4 218.6 128 212 128h-40C165.4 128 160 133.4 160 140v40C160 186.6 165.4 192 172 192h40C218.6 192 224 186.6 224 180zM320 180v-40C320 133.4 314.6 128 308 128h-40C261.4 128 256 133.4 256 140v40C256 186.6 261.4 192 268 192h40C314.6 192 320 186.6 320 180zM416 180v-40C416 133.4 410.6 128 404 128h-40C357.4 128 352 133.4 352 140v40C352 186.6 357.4 192 364 192h40C410.6 192 416 186.6 416 180zM512 180v-40C512 133.4 506.6 128 500 128h-40C453.4 128 448 133.4 448 140v40C448 186.6 453.4 192 460 192h40C506.6 192 512 186.6 512 180zM128 276v-40C128 229.4 122.6 224 116 224h-40C69.38 224 64 229.4 64 236v40C64 282.6 69.38 288 76 288h40C122.6 288 128 282.6 128 276zM224 276v-40C224 229.4 218.6 224 212 224h-40C165.4 224 160 229.4 160 236v40C160 282.6 165.4 288 172 288h40C218.6 288 224 282.6 224 276zM320 276v-40C320 229.4 314.6 224 308 224h-40C261.4 224 256 229.4 256 236v40C256 282.6 261.4 288 268 288h40C314.6 288 320 282.6 320 276zM416 276v-40C416 229.4 410.6 224 404 224h-40C357.4 224 352 229.4 352 236v40C352 282.6 357.4 288 364 288h40C410.6 288 416 282.6 416 276zM512 276v-40C512 229.4 506.6 224 500 224h-40C453.4 224 448 229.4 448 236v40C448 282.6 453.4 288 460 288h40C506.6 288 512 282.6 512 276zM128 372v-40C128 325.4 122.6 320 116 320h-40C69.38 320 64 325.4 64 332v40C64 378.6 69.38 384 76 384h40C122.6 384 128 378.6 128 372zM416 372v-40C416 325.4 410.6 320 404 320h-232C165.4 320 160 325.4 160 332v40C160 378.6 165.4 384 172 384h232C410.6 384 416 378.6 416 372zM512 372v-40C512 325.4 506.6 320 500 320h-40C453.4 320 448 325.4 448 332v40C448 378.6 453.4 384 460 384h40C506.6 384 512 378.6 512 372z"/>
  </symbol>
  <symbol id="leaf" viewBox="0 0 512 512">
    <path d="M512 165.4c0 127.9-70.05 235.3-175.3 270.1c-20.04 7.938-41.83 12.46-64.69 12.46c-64.9 0-125.2-36.51-155.7-94.47c-54.13 49.93-68.71 107-68.96 108.1C44.72 472.6 34.87 480 24.02 480c-1.844 0-3.727-.2187-5.602-.6562c-12.89-3.098-20.84-16.08-17.75-28.96c9.598-39.5 90.47-226.4 335.3-226.4C344.8 224 352 216.8 352 208S344.8 192 336 192C228.6 192 151 226.6 96.29 267.6c.1934-10.82 1.242-21.84 3.535-33.05c13.47-65.81 66.04-119 131.4-134.2c28.33-6.562 55.68-6.013 80.93-.0054c56 13.32 118.2-7.412 149.3-61.24c5.664-9.828 20.02-9.516 24.66 .8282C502.7 76.76 512 121.9 512 165.4z"/>
  </symbol>
  <symbol id="link" viewBox="0 0 640 512">
    <path d="M172.5 131.1C228.1 75.51 320.5 75.51 376.1 131.1C426.1 181.1 433.5 260.8 392.4 318.3L391.3 319.9C381 334.2 361 337.6 346.7 327.3C332.3 317 328.9 297 339.2 282.7L340.3 281.1C363.2 249 359.6 205.1 331.7 177.2C300.3 145.8 249.2 145.8 217.7 177.2L105.5 289.5C73.99 320.1 73.99 372 105.5 403.5C133.3 431.4 177.3 435 209.3 412.1L210.9 410.1C225.3 400.7 245.3 404 255.5 418.4C265.8 432.8 262.5 452.8 248.1 463.1L246.5 464.2C188.1 505.3 110.2 498.7 60.21 448.8C3.741 392.3 3.741 300.7 60.21 244.3L172.5 131.1zM467.5 380C411 436.5 319.5 436.5 263 380C213 330 206.5 251.2 247.6 193.7L248.7 192.1C258.1 177.8 278.1 174.4 293.3 184.7C307.7 194.1 311.1 214.1 300.8 229.3L299.7 230.9C276.8 262.1 280.4 306.9 308.3 334.8C339.7 366.2 390.8 366.2 422.3 334.8L534.5 222.5C566 191 566 139.1 534.5 108.5C506.7 80.63 462.7 76.99 430.7 99.9L429.1 101C414.7 111.3 394.7 107.1 384.5 93.58C374.2 79.2 377.5 59.21 391.9 48.94L393.5 47.82C451 6.731 529.8 13.25 579.8 63.24C636.3 119.7 636.3 211.3 579.8 267.7L467.5 380z"/>
  </symbol>
  <symbol id="list-check" viewBox="0 0 512 512">
    <path d="M152.1 38.16C161.9 47.03 162.7 62.2 153.8 72.06L81.84 152.1C77.43 156.9 71.21 159.8 64.63 159.1C58.05 160.2 51.69 157.6 47.03 152.1L7.029 112.1C-2.343 103.6-2.343 88.4 7.029 79.03C16.4 69.66 31.6 69.66 40.97 79.03L63.08 101.1L118.2 39.94C127 30.09 142.2 29.29 152.1 38.16V38.16zM152.1 198.2C161.9 207 162.7 222.2 153.8 232.1L81.84 312.1C77.43 316.9 71.21 319.8 64.63 319.1C58.05 320.2 51.69 317.6 47.03 312.1L7.029 272.1C-2.343 263.6-2.343 248.4 7.029 239C16.4 229.7 31.6 229.7 40.97 239L63.08 261.1L118.2 199.9C127 190.1 142.2 189.3 152.1 198.2V198.2zM224 96C224 78.33 238.3 64 256 64H480C497.7 64 512 78.33 512 96C512 113.7 497.7 128 480 128H256C238.3 128 224 113.7 224 96V96zM224 256C224 238.3 238.3 224 256 224H480C497.7 224 512 238.3 512 256C512 273.7 497.7 288 480 288H256C238.3 288 224 273.7 224 256zM160 416C160 398.3 174.3 384 192 384H480C497.7 384 512 398.3 512 416C512 433.7 497.7 448 480 448H192C174.3 448 160 433.7 160 416zM0 416C0 389.5 21.49 368 48 368C74.51 368 96 389.5 96 416C96 442.5 74.51 464 48 464C21.49 464 0 442.5 0 416z"/>
  </symbol>
  <symbol id="magnet" viewBox="0 0 448 512">
    <path d="M128 160V256C128 309 170.1 352 224 352C277 352 320 309 320 256V160H448V256C448 379.7 347.7 480 224 480C100.3 480 0 379.7 0 256V160H128zM0 64C0 46.33 14.33 32 32 32H96C113.7 32 128 46.33 128 64V128H0V64zM320 64C320 46.33 334.3 32 352 32H416C433.7 32 448 46.33 448 64V128H320V64z"/>
  </symbol>
  <symbol id="magnifying-glass" viewBox="0 0 512 512">
    <path d="M500.3 443.7l-119.7-119.7c27.22-40.41 40.65-90.9 33.46-144.7C401.8 87.79 326.8 13.32 235.2 1.723C99.01-15.51-15.51 99.01 1.724 235.2c11.6 91.64 86.08 166.7 177.6 178.9c53.8 7.189 104.3-6.236 144.7-33.46l119.7 119.7c15.62 15.62 40.95 15.62 56.57 0C515.9 484.7 515.9 459.3 500.3 443.7zM79.1 208c0-70.58 57.42-128 128-128s128 57.42 128 128c0 70.58-57.42 128-128 128S79.1 278.6 79.1 208z"/>
  </symbol>
  <symbol id="music" viewBox="0 0 512 512">
    <path d="M511.1 367.1c0 44.18-42.98 80-95.1 80s-95.1-35.82-95.1-79.1c0-44.18 42.98-79.1 95.1-79.1c11.28 0 21.95 1.92 32.01 4.898V148.1L192 224l-.0023 208.1C191.1 476.2 149 512 95.1 512S0 476.2 0 432c0-44.18 42.98-79.1 95.1-79.1c11.28 0 21.95 1.92 32 4.898V126.5c0-12.97 10.06-26.63 22.41-30.52l319.1-94.49C472.1 .6615 477.3 0 480 0c17.66 0 31.97 14.34 32 31.99L511.1 367.1z"/>
  </symbol>
  <symbol id="note-sticky" viewBox="0 0 448 512">
    <path d="M400 32h-352C21.49 32 0 53.49 0 80v352C0 458.5 21.49 480 48 480h245.5c16.97 0 33.25-6.744 45.26-18.75l90.51-90.51C441.3 358.7 448 342.5 448 325.5V80C448 53.49 426.5 32 400 32zM64 96h320l-.001 224H320c-17.67 0-32 14.33-32 32v64H64V96z"/>
  </symbol>
  <symbol id="paintbrush" viewBox="0 0 576 512">
    <path d="M224 263.3C224.2 233.3 238.4 205.2 262.4 187.2L499.1 9.605C517.7-4.353 543.6-2.965 560.7 12.9C577.7 28.76 580.8 54.54 568.2 74.07L406.5 324.1C391.3 347.7 366.6 363.2 339.3 367.1L224 263.3zM320 400C320 461.9 269.9 512 208 512H64C46.33 512 32 497.7 32 480C32 462.3 46.33 448 64 448H68.81C86.44 448 98.4 429.1 96.59 411.6C96.2 407.8 96 403.9 96 400C96 339.6 143.9 290.3 203.7 288.1L319.8 392.5C319.9 394.1 320 397.5 320 400V400z"/>
  </symbol>
  <symbol id="palette" viewBox="0 0 512 512">
    <path d="M512 255.1C512 256.9 511.1 257.8 511.1 258.7C511.6 295.2 478.4 319.1 441.9 319.1H344C317.5 319.1 296 341.5 296 368C296 371.4 296.4 374.7 297 377.9C299.2 388.1 303.5 397.1 307.9 407.8C313.9 421.6 320 435.3 320 449.8C320 481.7 298.4 510.5 266.6 511.8C263.1 511.9 259.5 512 256 512C114.6 512 0 397.4 0 256C0 114.6 114.6 0 256 0C397.4 0 512 114.6 512 256V255.1zM96 255.1C78.33 255.1 64 270.3 64 287.1C64 305.7 78.33 319.1 96 319.1C113.7 319.1 128 305.7 128 287.1C128 270.3 113.7 255.1 96 255.1zM128 191.1C145.7 191.1 160 177.7 160 159.1C160 142.3 145.7 127.1 128 127.1C110.3 127.1 96 142.3 96 159.1C96 177.7 110.3 191.1 128 191.1zM256 63.1C238.3 63.1 224 78.33 224 95.1C224 113.7 238.3 127.1 256 127.1C273.7 127.1 288 113.7 288 95.1C288 78.33 273.7 63.1 256 63.1zM384 191.1C401.7 191.1 416 177.7 416 159.1C416 142.3 401.7 127.1 384 127.1C366.3 127.1 352 142.3 352 159.1C352 177.7 366.3 191.1 384 191.1z"/>
  </symbol>
  <symbol id="pen" viewBox="0 0 512 512">
    <path d="M362.7 19.32C387.7-5.678 428.3-5.678 453.3 19.32L492.7 58.75C517.7 83.74 517.7 124.3 492.7 149.3L444.3 197.7L314.3 67.72L362.7 19.32zM421.7 220.3L188.5 453.4C178.1 463.8 165.2 471.5 151.1 475.6L30.77 511C22.35 513.5 13.24 511.2 7.03 504.1C.8198 498.8-1.502 489.7 .976 481.2L36.37 360.9C40.53 346.8 48.16 333.9 58.57 323.5L291.7 90.34L421.7 220.3z"/>
  </symbol>
  <symbol id="pen-to-square" viewBox="0 0 512 512">
    <path d="M490.3 40.4C512.2 62.27 512.2 97.73 490.3 119.6L460.3 149.7L362.3 51.72L392.4 21.66C414.3-.2135 449.7-.2135 471.6 21.66L490.3 40.4zM172.4 241.7L339.7 74.34L437.7 172.3L270.3 339.6C264.2 345.8 256.7 350.4 248.4 353.2L159.6 382.8C150.1 385.6 141.5 383.4 135 376.1C128.6 370.5 126.4 361 129.2 352.4L158.8 263.6C161.6 255.3 166.2 247.8 172.4 241.7V241.7zM192 63.1C209.7 63.1 224 78.33 224 95.1C224 113.7 209.7 127.1 192 127.1H96C78.33 127.1 64 142.3 64 159.1V416C64 433.7 78.33 448 96 448H352C369.7 448 384 433.7 384 416V319.1C384 302.3 398.3 287.1 416 287.1C433.7 287.1 448 302.3 448 319.1V416C448 469 405 512 352 512H96C42.98 512 0 469 0 416V159.1C0 106.1 42.98 63.1 96 63.1H192z"/>
  </symbol>
  <symbol id="power-off" viewBox="0 0 512 512">
    <path d="M288 256C288 273.7 273.7 288 256 288C238.3 288 224 273.7 224 256V32C224 14.33 238.3 0 256 0C273.7 0 288 14.33 288 32V256zM80 256C80 353.2 158.8 432 256 432C353.2 432 432 353.2 432 256C432 201.6 407.3 152.9 368.5 120.6C354.9 109.3 353 89.13 364.3 75.54C375.6 61.95 395.8 60.1 409.4 71.4C462.2 115.4 496 181.8 496 255.1C496 388.5 388.5 496 256 496C123.5 496 16 388.5 16 255.1C16 181.8 49.75 115.4 102.6 71.4C116.2 60.1 136.4 61.95 147.7 75.54C158.1 89.13 157.1 109.3 143.5 120.6C104.7 152.9 80 201.6 80 256z"/>
  </symbol>
  <symbol id="puzzle-piece" viewBox="0 0 512 512">
    <path d="M512 288c0 35.35-21.49 64-48 64c-32.43 0-31.72-32-55.64-32C394.9 320 384 330.9 384 344.4V480c0 17.67-14.33 32-32 32h-71.64C266.9 512 256 501.1 256 487.6C256 463.1 288 464.4 288 432c0-26.51-28.65-48-64-48s-64 21.49-64 48c0 32.43 32 31.72 32 55.64C192 501.1 181.1 512 167.6 512H32c-17.67 0-32-14.33-32-32v-135.6C0 330.9 10.91 320 24.36 320C48.05 320 47.6 352 80 352C106.5 352 128 323.3 128 288S106.5 223.1 80 223.1c-32.43 0-31.72 32-55.64 32C10.91 255.1 0 245.1 0 231.6v-71.64c0-17.67 14.33-31.1 32-31.1h135.6C181.1 127.1 192 117.1 192 103.6c0-23.69-32-23.24-32-55.64c0-26.51 28.65-47.1 64-47.1s64 21.49 64 47.1c0 32.43-32 31.72-32 55.64c0 13.45 10.91 24.36 24.36 24.36H352c17.67 0 32 14.33 32 31.1v71.64c0 13.45 10.91 24.36 24.36 24.36c23.69 0 23.24-32 55.64-32C490.5 223.1 512 252.7 512 288z"/>
  </symbol>
  <symbol id="question" viewBox="0 0 320 512">
    <path d="M204.3 32.01H96c-52.94 0-96 43.06-96 96c0 17.67 14.31 31.1 32 31.1s32-14.32 32-31.1c0-17.64 14.34-32 32-32h108.3C232.8 96.01 256 119.2 256 147.8c0 19.72-10.97 37.47-30.5 47.33L127.8 252.4C117.1 258.2 112 268.7 112 280v40c0 17.67 14.31 31.99 32 31.99s32-14.32 32-31.99V298.3L256 251.3c39.47-19.75 64-59.42 64-103.5C320 83.95 268.1 32.01 204.3 32.01zM144 400c-22.09 0-40 17.91-40 40s17.91 39.1 40 39.1s40-17.9 40-39.1S166.1 400 144 400z"/>
  </symbol>
  <symbol id="quote-right" viewBox="0 0 448 512">
    <path d="M96 96C42.98 96 0 138.1 0 192s42.98 96 96 96c11.28 0 21.95-2.305 32-5.879V288c0 35.3-28.7 64-64 64c-17.67 0-32 14.33-32 32s14.33 32 32 32c70.58 0 128-57.42 128-128V192C192 138.1 149 96 96 96zM448 192c0-53.02-42.98-96-96-96s-96 42.98-96 96s42.98 96 96 96c11.28 0 21.95-2.305 32-5.879V288c0 35.3-28.7 64-64 64c-17.67 0-32 14.33-32 32s14.33 32 32 32c70.58 0 128-57.42 128-128V192z"/>
  </symbol>
  <symbol id="rainbow" viewBox="0 0 640 512">
    <path d="M312.3 32.09C137.6 36.22 0 183.3 0 358V464C0 472.8 7.164 480 16 480h32C56.84 480 64 472.8 64 464v-106.9c0-143.2 117.2-263.5 260.4-261.1C463.5 98.4 576 212.3 576 352v112c0 8.836 7.164 16 16 16h32c8.838 0 16-7.164 16-16V352C640 172.1 492.3 27.84 312.3 32.09zM313.5 224.2C244.8 227.6 192 286.9 192 355.7V464C192 472.8 199.2 480 208 480h32C248.8 480 256 472.8 256 464v-109.7c0-34.06 25.65-63.85 59.64-66.11C352.9 285.7 384 315.3 384 352v112c0 8.836 7.164 16 16 16h32c8.838 0 16-7.164 16-16V352C448 279.3 387 220.5 313.5 224.2zM313.2 128.1C191.4 131.7 96 234.9 96 356.8V464C96 472.8 103.2 480 112 480h32C152.8 480 160 472.8 160 464v-108.1c0-86.64 67.24-160.5 153.8-163.8C404.8 188.7 480 261.7 480 352v112c0 8.836 7.164 16 16 16h32c8.838 0 16-7.164 16-16V352C544 226.2 439.8 124.3 313.2 128.1z"/>
  </symbol>
  <symbol id="repeat" viewBox="0 0 512 512">
    <path d="M480 256c-17.67 0-32 14.31-32 32c0 52.94-43.06 96-96 96H192L192 344c0-9.469-5.578-18.06-14.23-21.94C169.1 318.3 159 319.8 151.9 326.2l-80 72C66.89 402.7 64 409.2 64 416s2.891 13.28 7.938 17.84l80 72C156.4 509.9 162.2 512 168 512c3.312 0 6.615-.6875 9.756-2.062C186.4 506.1 192 497.5 192 488L192 448h160c88.22 0 160-71.78 160-160C512 270.3 497.7 256 480 256zM160 128h159.1L320 168c0 9.469 5.578 18.06 14.23 21.94C337.4 191.3 340.7 192 343.1 192c5.812 0 11.57-2.125 16.07-6.156l80-72C445.1 109.3 448 102.8 448 95.1s-2.891-13.28-7.938-17.84l-80-72c-7.047-6.312-17.19-7.875-25.83-4.094C325.6 5.938 319.1 14.53 319.1 24L320 64H160C71.78 64 0 135.8 0 224c0 17.69 14.33 32 32 32s32-14.31 32-32C64 171.1 107.1 128 160 128z"/>
  </symbol>
  <symbol id="retweet" viewBox="0 0 640 512">
    <path d="M614.2 334.8C610.5 325.8 601.7 319.1 592 319.1H544V176C544 131.9 508.1 96 464 96h-128c-17.67 0-32 14.31-32 32s14.33 32 32 32h128C472.8 160 480 167.2 480 176v143.1h-48c-9.703 0-18.45 5.844-22.17 14.82s-1.656 19.29 5.203 26.16l80 80.02C499.7 445.7 505.9 448 512 448s12.28-2.344 16.97-7.031l80-80.02C615.8 354.1 617.9 343.8 614.2 334.8zM304 352h-128C167.2 352 160 344.8 160 336V192h48c9.703 0 18.45-5.844 22.17-14.82s1.656-19.29-5.203-26.16l-80-80.02C140.3 66.34 134.1 64 128 64S115.7 66.34 111 71.03l-80 80.02C24.17 157.9 22.11 168.2 25.83 177.2S38.3 192 48 192H96V336C96 380.1 131.9 416 176 416h128c17.67 0 32-14.31 32-32S321.7 352 304 352z"/>
  </symbol>
  <symbol id="ribbon" viewBox="0 0 448 512">
    <path d="M6.05 444.3c-9.626 10.87-7.501 27.62 4.5 35.75l68.76 27.87c9.876 6.75 23.38 4.1 31.38-3.75l91.76-101.9L123.2 314.3L6.05 444.3zM441.8 444.3c0 0-292-324.5-295.4-329.1c15.38-8.5 40.25-17.1 77.51-17.1s62.13 9.5 77.51 17.1c-3.25 5.5-56.01 64.5-56.01 64.5l79.13 87.75l34.13-37.1c28.75-31.87 33.38-78.62 11.5-115.5L326.5 39.52c-4.25-7.25-9.876-13.25-16.75-17.1c-40.75-27.62-127.5-29.75-171.5 0C131.3 26.27 125.7 32.27 121.4 39.52L77.81 112.8C76.31 115.3 40.68 174.9 89.31 228.8l248.1 275.2c8.001 8.875 21.38 10.5 31.25 3.75l68.88-27.87C449.5 471.9 451.6 455.1 441.8 444.3z"/>
  </symbol>
  <symbol id="rotate" viewBox="0 0 512 512">
    <path d="M449.9 39.96l-48.5 48.53C362.5 53.19 311.4 32 256 32C161.5 32 78.59 92.34 49.58 182.2c-5.438 16.81 3.797 34.88 20.61 40.28c16.97 5.5 34.86-3.812 40.3-20.59C130.9 138.5 189.4 96 256 96c37.96 0 73 14.18 100.2 37.8L311.1 178C295.1 194.8 306.8 223.4 330.4 224h146.9C487.7 223.7 496 215.3 496 204.9V59.04C496 34.99 466.9 22.95 449.9 39.96zM441.8 289.6c-16.94-5.438-34.88 3.812-40.3 20.59C381.1 373.5 322.6 416 256 416c-37.96 0-73-14.18-100.2-37.8L200 334C216.9 317.2 205.2 288.6 181.6 288H34.66C24.32 288.3 16 296.7 16 307.1v145.9c0 24.04 29.07 36.08 46.07 19.07l48.5-48.53C149.5 458.8 200.6 480 255.1 480c94.45 0 177.4-60.34 206.4-150.2C467.9 313 458.6 294.1 441.8 289.6z"/>
  </symbol>
  <symbol id="screwdriver-wrench" viewBox="0 0 512 512">
    <path d="M331.8 224.1c28.29 0 54.88 10.99 74.86 30.97l19.59 19.59c40.01-17.74 71.25-53.3 81.62-96.65c5.725-23.92 5.34-47.08 .2148-68.4c-2.613-10.88-16.43-14.51-24.34-6.604l-68.9 68.9h-75.6V97.2l68.9-68.9c7.912-7.912 4.275-21.73-6.604-24.34c-21.32-5.125-44.48-5.51-68.4 .2148c-55.3 13.23-98.39 60.22-107.2 116.4C224.5 128.9 224.2 137 224.3 145l82.78 82.86C315.2 225.1 323.5 224.1 331.8 224.1zM384 278.6c-23.16-23.16-57.57-27.57-85.39-13.9L191.1 158L191.1 95.99l-127.1-95.99L0 63.1l96 127.1l62.04 .0077l106.7 106.6c-13.67 27.82-9.251 62.23 13.91 85.39l117 117.1c14.62 14.5 38.21 14.5 52.71-.0016l52.75-52.75c14.5-14.5 14.5-38.08-.0016-52.71L384 278.6zM227.9 307L168.7 247.9l-148.9 148.9c-26.37 26.37-26.37 69.08 0 95.45C32.96 505.4 50.21 512 67.5 512s34.54-6.592 47.72-19.78l119.1-119.1C225.5 352.3 222.6 329.4 227.9 307zM64 472c-13.25 0-24-10.75-24-24c0-13.26 10.75-24 24-24S88 434.7 88 448C88 461.3 77.25 472 64 472z"/>
  </symbol>
  <symbol id="server" viewBox="0 0 512 512">
    <path d="M480 288H32c-17.62 0-32 14.38-32 32v128c0 17.62 14.38 32 32 32h448c17.62 0 32-14.38 32-32v-128C512 302.4 497.6 288 480 288zM352 408c-13.25 0-24-10.75-24-24s10.75-24 24-24s24 10.75 24 24S365.3 408 352 408zM416 408c-13.25 0-24-10.75-24-24s10.75-24 24-24s24 10.75 24 24S429.3 408 416 408zM480 32H32C14.38 32 0 46.38 0 64v128c0 17.62 14.38 32 32 32h448c17.62 0 32-14.38 32-32V64C512 46.38 497.6 32 480 32zM352 152c-13.25 0-24-10.75-24-24S338.8 104 352 104S376 114.8 376 128S365.3 152 352 152zM416 152c-13.25 0-24-10.75-24-24S402.8 104 416 104S440 114.8 440 128S429.3 152 416 152z"/>
  </symbol>
  <symbol id="shuffle" viewBox="0 0 512 512">
    <path d="M424.1 287c-15.13-15.12-40.1-4.426-40.1 16.97V352H336L153.6 108.8C147.6 100.8 138.1 96 128 96H32C14.31 96 0 110.3 0 128s14.31 32 32 32h80l182.4 243.2C300.4 411.3 309.9 416 320 416h63.97v47.94c0 21.39 25.86 32.12 40.99 17l79.1-79.98c9.387-9.387 9.387-24.59 0-33.97L424.1 287zM336 160h47.97v48.03c0 21.39 25.87 32.09 40.1 16.97l79.1-79.98c9.387-9.391 9.385-24.59-.0013-33.97l-79.1-79.98c-15.13-15.12-40.99-4.391-40.99 17V96H320c-10.06 0-19.56 4.75-25.59 12.81L254 162.7L293.1 216L336 160zM112 352H32c-17.69 0-32 14.31-32 32s14.31 32 32 32h96c10.06 0 19.56-4.75 25.59-12.81l40.4-53.87L154 296L112 352z"/>
  </symbol>
  <symbol id="spider" viewBox="0 0 576 512">
    <path d="M563.3 401.6c2.608 8.443-2.149 17.4-10.62 19.1l-15.35 4.709c-8.48 2.6-17.47-2.139-20.08-10.59L493.2 338l-79.79-31.8l53.47 62.15c5.08 5.904 6.972 13.89 5.08 21.44l-28.23 110.1c-2.151 8.57-10.87 13.78-19.47 11.64l-15.58-3.873c-8.609-2.141-13.84-10.83-11.69-19.4l25.2-98.02l-38.51-44.77c.1529 2.205 .6627 4.307 .6627 6.549c0 53.02-43.15 96-96.37 96S191.6 405 191.6 352c0-2.242 .5117-4.34 .6627-6.543l-38.51 44.76l25.2 98.02c2.151 8.574-3.084 17.26-11.69 19.4l-15.58 3.873c-8.603 2.141-17.32-3.072-19.47-11.64l-28.23-110.1c-1.894-7.543 0-15.53 5.08-21.44l53.47-62.15l-79.79 31.8l-24.01 77.74c-2.608 8.447-11.6 13.19-20.08 10.59l-15.35-4.709c-8.478-2.6-13.23-11.55-10.63-19.1l27.4-88.69c2.143-6.939 7.323-12.54 14.09-15.24L158.9 256l-104.7-41.73C47.43 211.6 42.26 205.1 40.11 199.1L12.72 110.4c-2.608-8.443 2.149-17.4 10.62-19.1l15.35-4.709c8.48-2.6 17.47 2.139 20.08 10.59l24.01 77.74l79.79 31.8L109.1 143.6C104 137.7 102.1 129.7 104 122.2l28.23-110.1c2.151-8.57 10.87-13.78 19.47-11.64l15.58 3.873C175.9 6.494 181.1 15.18 178.1 23.76L153.8 121.8L207.7 184.4l.1542-24.44C206.1 123.4 228.9 91.77 261.4 80.43c5.141-1.793 10.5 2.215 10.5 7.641V112h32.12V88.09c0-5.443 5.394-9.443 10.55-7.641C345.9 91.39 368.3 121 368.3 155.9c0 1.393-.1786 2.689-.2492 4.064L368.3 184.4l53.91-62.66l-25.2-98.02c-2.151-8.574 3.084-17.26 11.69-19.4l15.58-3.873c8.603-2.141 17.32 3.072 19.47 11.64l28.23 110.1c1.894 7.543 0 15.53-5.08 21.44l-53.47 62.15l79.79-31.8l24.01-77.74c2.608-8.447 11.6-13.19 20.08-10.59l15.35 4.709c8.478 2.6 13.23 11.55 10.63 19.1l-27.4 88.69c-2.143 6.939-7.323 12.54-14.09 15.24L417.1 256l104.7 41.73c6.754 2.691 11.92 8.283 14.07 15.21L563.3 401.6z"/>
  </symbol>
  <symbol id="square" viewBox="0 0 448 512">
    <path d="M0 96C0 60.65 28.65 32 64 32H384C419.3 32 448 60.65 448 96V416C448 451.3 419.3 480 384 480H64C28.65 480 0 451.3 0 416V96z"/>
  </symbol>
  <symbol id="square-arrow-up-right" viewBox="0 0 448 512">
    <path d="M384 32H64C28.65 32 0 60.66 0 96v320c0 35.34 28.65 64 64 64h320c35.35 0 64-28.66 64-64V96C448 60.66 419.3 32 384 32zM344 312c0 17.69-14.31 32-32 32s-32-14.31-32-32V245.3l-121.4 121.4C152.4 372.9 144.2 376 136 376s-16.38-3.125-22.62-9.375c-12.5-12.5-12.5-32.75 0-45.25L234.8 200H168c-17.69 0-32-14.31-32-32s14.31-32 32-32h144c17.69 0 32 14.31 32 32V312z"/>
  </symbol>
  <symbol id="square-caret-down" viewBox="0 0 448 512">
    <path d="M384 32H64C28.65 32 0 60.65 0 96v320c0 35.34 28.65 64 64 64h320c35.35 0 64-28.66 64-64V96C448 60.65 419.3 32 384 32zM345.6 232.3l-104 112C237 349.2 230.7 352 224 352s-13.03-2.781-17.59-7.656l-104-112c-6.5-7-8.219-17.19-4.407-25.94C101.8 197.7 110.5 192 120 192h208c9.531 0 18.19 5.656 21.1 14.41C353.8 215.2 352.1 225.3 345.6 232.3z"/>
  </symbol>
  <symbol id="square-caret-left" viewBox="0 0 448 512">
    <path d="M384 32H64C28.65 32 0 60.65 0 96v320c0 35.34 28.65 64 64 64h320c35.35 0 64-28.66 64-64V96C448 60.65 419.3 32 384 32zM288 360c0 9.531-5.656 18.19-14.41 22C270.5 383.3 267.3 384 264 384c-5.938 0-11.81-2.219-16.34-6.406l-112-104C130.8 269 128 262.7 128 256s2.781-13.03 7.656-17.59l112-104c7.031-6.469 17.22-8.156 25.94-4.406C282.3 133.8 288 142.5 288 152V360z"/>
  </symbol>
  <symbol id="square-caret-right" viewBox="0 0 448 512">
    <path d="M384 32H64C28.65 32 0 60.65 0 96v320c0 35.34 28.65 64 64 64h320c35.35 0 64-28.66 64-64V96C448 60.65 419.3 32 384 32zM312.3 273.6l-112 104C195.8 381.8 189.9 384 184 384c-3.25 0-6.5-.6562-9.594-2C165.7 378.2 160 369.5 160 360v-208c0-9.531 5.656-18.19 14.41-22c8.75-3.75 18.94-2.062 25.94 4.406l112 104C317.2 242.1 320 249.3 320 256S317.2 269 312.3 273.6z"/>
  </symbol>
  <symbol id="square-caret-up" viewBox="0 0 448 512">
    <path d="M384 32H64C28.65 32 0 60.65 0 96v320c0 35.34 28.65 64 64 64h320c35.35 0 64-28.66 64-64V96C448 60.65 419.3 32 384 32zM349.1 305.6C346.2 314.3 337.5 320 328 320h-208c-9.531 0-18.19-5.656-22-14.41C94.19 296.8 95.91 286.7 102.4 279.7l104-112c9.125-9.75 26.06-9.75 35.19 0l104 112C352.1 286.7 353.8 296.8 349.1 305.6z"/>
  </symbol>
  <symbol id="square-check" viewBox="0 0 448 512">
    <path d="M384 32C419.3 32 448 60.65 448 96V416C448 451.3 419.3 480 384 480H64C28.65 480 0 451.3 0 416V96C0 60.65 28.65 32 64 32H384zM339.8 211.8C350.7 200.9 350.7 183.1 339.8 172.2C328.9 161.3 311.1 161.3 300.2 172.2L192 280.4L147.8 236.2C136.9 225.3 119.1 225.3 108.2 236.2C97.27 247.1 97.27 264.9 108.2 275.8L172.2 339.8C183.1 350.7 200.9 350.7 211.8 339.8L339.8 211.8z"/>
  </symbol>
  <symbol id="square-envelope" viewBox="0 0 448 512">
    <path d="M384 32H64C28.63 32 0 60.63 0 96v320c0 35.38 28.62 64 64 64h320c35.38 0 64-28.62 64-64V96C448 60.63 419.4 32 384 32zM384 336c0 17.67-14.33 32-32 32H96c-17.67 0-32-14.33-32-32V225.9l138.5 69.27C209.3 298.5 216.6 300.2 224 300.2s14.75-1.688 21.47-5.047L384 225.9V336zM384 190.1l-152.8 76.42c-4.5 2.25-9.812 2.25-14.31 0L64 190.1V176c0-17.67 14.33-32 32-32h256c17.67 0 32 14.33 32 32V190.1z"/>
  </symbol>
  <symbol id="square-full" viewBox="0 0 512 512">
    <path d="M0 0H512V512H0V0z"/>
  </symbol>
  <symbol id="square-h" viewBox="0 0 448 512">
    <path d="M384 32H64C28.65 32 0 60.65 0 96v320c0 35.35 28.65 64 64 64h320c35.35 0 64-28.65 64-64V96C448 60.65 419.3 32 384 32zM336 360c0 13.25-10.75 24-24 24S288 373.3 288 360v-80H160v80C160 373.3 149.3 384 136 384S112 373.3 112 360v-208C112 138.8 122.8 128 136 128S160 138.8 160 152v80h128v-80C288 138.8 298.8 128 312 128s24 10.75 24 24V360z"/>
  </symbol>
  <symbol id="square-minus" viewBox="0 0 448 512">
    <path d="M384 32C419.3 32 448 60.65 448 96V416C448 451.3 419.3 480 384 480H64C28.65 480 0 451.3 0 416V96C0 60.65 28.65 32 64 32H384zM136 232C122.7 232 112 242.7 112 256C112 269.3 122.7 280 136 280H312C325.3 280 336 269.3 336 256C336 242.7 325.3 232 312 232H136z"/>
  </symbol>
  <symbol id="square-parking" viewBox="0 0 448 512">
    <path d="M192 256V192H240C257.7 192 272 206.3 272 224C272 241.7 257.7 256 240 256H192zM384 32C419.3 32 448 60.65 448 96V416C448 451.3 419.3 480 384 480H64C28.65 480 0 451.3 0 416V96C0 60.65 28.65 32 64 32H384zM336 224C336 170.1 293 128 240 128H168C145.9 128 128 145.9 128 168V352C128 369.7 142.3 384 160 384C177.7 384 192 369.7 192 352V320H240C293 320 336 277 336 224z"/>
  </symbol>
  <symbol id="square-pen" viewBox="0 0 448 512">
    <path d="M384 32C419.3 32 448 60.65 448 96V416C448 451.3 419.3 480 384 480H64C28.65 480 0 451.3 0 416V96C0 60.65 28.65 32 64 32H384zM325.8 139.7C310.1 124.1 284.8 124.1 269.2 139.7L247.8 161.1L318.7 232.1L340.1 210.7C355.8 195 355.8 169.7 340.1 154.1L325.8 139.7zM111.5 303.8L96.48 363.1C95.11 369.4 96.71 375.2 100.7 379.2C104.7 383.1 110.4 384.7 115.9 383.4L176 368.3C181.6 366.9 186.8 364 190.9 359.9L296.1 254.7L225.1 183.8L119.9 288.1C115.8 293.1 112.9 298.2 111.5 303.8z"/>
  </symbol>
  <symbol id="square-phone" viewBox="0 0 448 512">
    <path d="M384 32H64C28.65 32 0 60.65 0 96v320c0 35.35 28.65 64 64 64h320c35.35 0 64-28.65 64-64V96C448 60.65 419.3 32 384 32zM351.6 321.5l-11.62 50.39c-1.633 7.125-7.9 12.11-15.24 12.11c-126.1 0-228.7-102.6-228.7-228.8c0-7.328 4.984-13.59 12.11-15.22l50.38-11.63c7.344-1.703 14.88 2.109 17.93 9.062l23.27 54.28c2.719 6.391 .8828 13.83-4.492 18.22L168.3 232c16.99 34.61 45.14 62.75 79.77 79.75l22.02-26.91c4.344-5.391 11.85-7.25 18.24-4.484l54.24 23.25C349.5 306.6 353.3 314.2 351.6 321.5z"/>
  </symbol>
  <symbol id="square-phone-flip" viewBox="0 0 448 512">
    <path d="M0 96v320c0 35.35 28.65 64 64 64h320c35.35 0 64-28.65 64-64V96c0-35.35-28.65-64-64-64H64C28.65 32 0 60.65 0 96zM105.5 303.6l54.24-23.25c6.391-2.766 13.9-.9062 18.24 4.484l22.02 26.91c34.63-17 62.77-45.14 79.77-79.75l-26.91-22.05c-5.375-4.391-7.211-11.83-4.492-18.22l23.27-54.28c3.047-6.953 10.59-10.77 17.93-9.062l50.38 11.63c7.125 1.625 12.11 7.891 12.11 15.22c0 126.1-102.6 228.8-228.7 228.8c-7.336 0-13.6-4.984-15.24-12.11l-11.62-50.39C94.71 314.2 98.5 306.6 105.5 303.6z"/>
  </symbol>
  <symbol id="square-plus" viewBox="0 0 448 512">
    <path d="M384 32C419.3 32 448 60.65 448 96V416C448 451.3 419.3 480 384 480H64C28.65 480 0 451.3 0 416V96C0 60.65 28.65 32 64 32H384zM224 368C237.3 368 248 357.3 248 344V280H312C325.3 280 336 269.3 336 256C336 242.7 325.3 232 312 232H248V168C248 154.7 237.3 144 224 144C210.7 144 200 154.7 200 168V232H136C122.7 232 112 242.7 112 256C112 269.3 122.7 280 136 280H200V344C200 357.3 210.7 368 224 368z"/>
  </symbol>
  <symbol id="square-poll-horizontal" viewBox="0 0 448 512">
    <path d="M448 416C448 451.3 419.3 480 384 480H64C28.65 480 0 451.3 0 416V96C0 60.65 28.65 32 64 32H384C419.3 32 448 60.65 448 96V416zM256 160C256 142.3 241.7 128 224 128H128C110.3 128 96 142.3 96 160C96 177.7 110.3 192 128 192H224C241.7 192 256 177.7 256 160zM128 224C110.3 224 96 238.3 96 256C96 273.7 110.3 288 128 288H320C337.7 288 352 273.7 352 256C352 238.3 337.7 224 320 224H128zM192 352C192 334.3 177.7 320 160 320H128C110.3 320 96 334.3 96 352C96 369.7 110.3 384 128 384H160C177.7 384 192 369.7 192 352z"/>
  </symbol>
  <symbol id="square-poll-vertical" viewBox="0 0 448 512">
    <path d="M384 32C419.3 32 448 60.65 448 96V416C448 451.3 419.3 480 384 480H64C28.65 480 0 451.3 0 416V96C0 60.65 28.65 32 64 32H384zM128 224C110.3 224 96 238.3 96 256V352C96 369.7 110.3 384 128 384C145.7 384 160 369.7 160 352V256C160 238.3 145.7 224 128 224zM192 352C192 369.7 206.3 384 224 384C241.7 384 256 369.7 256 352V160C256 142.3 241.7 128 224 128C206.3 128 192 142.3 192 160V352zM320 288C302.3 288 288 302.3 288 320V352C288 369.7 302.3 384 320 384C337.7 384 352 369.7 352 352V320C352 302.3 337.7 288 320 288z"/>
  </symbol>
  <symbol id="square-root-variable" viewBox="0 0 576 512">
    <path d="M576 32.01c0-17.69-14.33-31.1-32-31.1l-224-.0049c-14.69 0-27.48 10-31.05 24.25L197.9 388.3L124.6 241.7C119.2 230.9 108.1 224 96 224L32 224c-17.67 0-32 14.31-32 31.1s14.33 32 32 32h44.22l103.2 206.3c5.469 10.91 16.6 17.68 28.61 17.68c1.172 0 2.323-.0576 3.495-.1826c13.31-1.469 24.31-11.06 27.56-24.06l105.9-423.8H544C561.7 64.01 576 49.7 576 32.01zM566.6 233.4c-12.5-12.5-32.75-12.5-45.25 0L480 274.8l-41.38-41.37c-12.5-12.5-32.75-12.5-45.25 0s-12.5 32.75 0 45.25l41.38 41.38l-41.38 41.38c-12.5 12.5-12.5 32.75 0 45.25C399.6 412.9 407.8 416 416 416s16.38-3.125 22.62-9.375L480 365.3l41.38 41.38C527.6 412.9 535.8 416 544 416s16.38-3.125 22.62-9.375c12.5-12.5 12.5-32.75 0-45.25l-41.38-41.38L566.6 278.6C579.1 266.1 579.1 245.9 566.6 233.4z"/>
  </symbol>
  <symbol id="square-rss" viewBox="0 0 448 512">
    <path d="M384 32H64C28.65 32 0 60.66 0 96v320c0 35.34 28.65 64 64 64h320c35.35 0 64-28.66 64-64V96C448 60.66 419.3 32 384 32zM150.6 374.6C144.4 380.9 136.2 384 128 384s-16.38-3.121-22.63-9.371c-12.5-12.5-12.5-32.76 0-45.26C111.6 323.1 119.8 320 128 320s16.38 3.121 22.63 9.371C163.1 341.9 163.1 362.1 150.6 374.6zM249.6 383.9C249 383.1 248.5 384 247.1 384c-12.53 0-23.09-9.75-23.92-22.44C220.5 306.9 173.1 259.5 118.4 255.9c-13.22-.8438-23.25-12.28-22.39-25.5c.8594-13.25 12.41-22.81 25.52-22.38c77.86 5.062 145.3 72.5 150.4 150.4C272.8 371.7 262.8 383.1 249.6 383.9zM345 383.1C344.7 384 344.3 384 343.1 384c-12.8 0-23.42-10.09-23.97-23C315.6 254.6 225.4 164.4 119 159.1C105.8 159.4 95.47 148.3 96.02 135C96.58 121.8 107.9 111.2 121 112c130.7 5.469 241.5 116.3 246.1 246.1C368.5 372.3 358.3 383.4 345 383.1z"/>
  </symbol>
  <symbol id="square-share-nodes" viewBox="0 0 448 512">
    <path d="M384 32C419.3 32 448 60.65 448 96V416C448 451.3 419.3 480 384 480H64C28.65 480 0 451.3 0 416V96C0 60.65 28.65 32 64 32H384zM320 96C284.7 96 256 124.7 256 160C256 162.5 256.1 164.9 256.4 167.3L174.5 212C162.8 199.7 146.3 192 128 192C92.65 192 64 220.7 64 256C64 291.3 92.65 320 128 320C146.3 320 162.8 312.3 174.5 299.1L256.4 344.7C256.1 347.1 256 349.5 256 352C256 387.3 284.7 416 320 416C355.3 416 384 387.3 384 352C384 316.7 355.3 288 320 288C304.6 288 290.5 293.4 279.4 302.5L194.1 256L279.4 209.5C290.5 218.6 304.6 224 320 224C355.3 224 384 195.3 384 160C384 124.7 355.3 96 320 96V96z"/>
  </symbol>
  <symbol id="square-up-right" viewBox="0 0 448 512">
    <path d="M384 32H64C28.65 32 0 60.65 0 96v320c0 35.34 28.65 64 64 64h320c35.35 0 64-28.66 64-64V96C448 60.65 419.3 32 384 32zM330.5 323.9c0 6.473-3.889 12.3-9.877 14.78c-5.979 2.484-12.86 1.105-17.44-3.469l-45.25-45.25l-67.92 67.92c-12.5 12.5-32.72 12.46-45.21-.0411l-22.63-22.63C109.7 322.7 109.6 302.5 122.1 289.1l67.92-67.92L144.8 176.8C140.2 172.2 138.8 165.3 141.3 159.4c2.477-5.984 8.309-9.875 14.78-9.875h158.4c8.835 0 15.1 7.163 15.1 15.1V323.9z"/>
  </symbol>
  <symbol id="square-xmark" viewBox="0 0 448 512">
    <path d="M384 32C419.3 32 448 60.65 448 96V416C448 451.3 419.3 480 384 480H64C28.65 480 0 451.3 0 416V96C0 60.65 28.65 32 64 32H384zM143 208.1L190.1 255.1L143 303C133.7 312.4 133.7 327.6 143 336.1C152.4 346.3 167.6 346.3 176.1 336.1L223.1 289.9L271 336.1C280.4 346.3 295.6 346.3 304.1 336.1C314.3 327.6 314.3 312.4 304.1 303L257.9 255.1L304.1 208.1C314.3 199.6 314.3 184.4 304.1 175C295.6 165.7 280.4 165.7 271 175L223.1 222.1L176.1 175C167.6 165.7 152.4 165.7 143 175C133.7 184.4 133.7 199.6 143 208.1V208.1z"/>
  </symbol>
  <symbol id="star" viewBox="0 0 576 512">
    <path d="M381.2 150.3L524.9 171.5C536.8 173.2 546.8 181.6 550.6 193.1C554.4 204.7 551.3 217.3 542.7 225.9L438.5 328.1L463.1 474.7C465.1 486.7 460.2 498.9 450.2 506C440.3 513.1 427.2 514 416.5 508.3L288.1 439.8L159.8 508.3C149 514 135.9 513.1 126 506C116.1 498.9 111.1 486.7 113.2 474.7L137.8 328.1L33.58 225.9C24.97 217.3 21.91 204.7 25.69 193.1C29.46 181.6 39.43 173.2 51.42 171.5L195 150.3L259.4 17.97C264.7 6.954 275.9-.0391 288.1-.0391C300.4-.0391 311.6 6.954 316.9 17.97L381.2 150.3z"/>
  </symbol>
  <symbol id="window-maximize" viewBox="0 0 512 512">
    <path d="M448 32C483.3 32 512 60.65 512 96V416C512 451.3 483.3 480 448 480H64C28.65 480 0 451.3 0 416V96C0 60.65 28.65 32 64 32H448zM96 96C78.33 96 64 110.3 64 128C64 145.7 78.33 160 96 160H416C433.7 160 448 145.7 448 128C448 110.3 433.7 96 416 96H96z"/>
  </symbol>
  <symbol id="window-minimize" viewBox="0 0 512 512">
    <path d="M0 448C0 430.3 14.33 416 32 416H480C497.7 416 512 430.3 512 448C512 465.7 497.7 480 480 480H32C14.33 480 0 465.7 0 448z"/>
  </symbol>
  <symbol id="window-restore" viewBox="0 0 512 512">
    <path d="M432 64H208C199.2 64 192 71.16 192 80V96H128V80C128 35.82 163.8 0 208 0H432C476.2 0 512 35.82 512 80V304C512 348.2 476.2 384 432 384H416V320H432C440.8 320 448 312.8 448 304V80C448 71.16 440.8 64 432 64zM0 192C0 156.7 28.65 128 64 128H320C355.3 128 384 156.7 384 192V448C384 483.3 355.3 512 320 512H64C28.65 512 0 483.3 0 448V192zM96 256H288C305.7 256 320 241.7 320 224C320 206.3 305.7 192 288 192H96C78.33 192 64 206.3 64 224C64 241.7 78.33 256 96 256z"/>
  </symbol>
  <symbol id="wrench" viewBox="0 0 512 512">
    <path d="M507.6 122.8c-2.904-12.09-18.25-16.13-27.04-7.338l-76.55 76.56l-83.1-.0002l0-83.1l76.55-76.56c8.791-8.789 4.75-24.14-7.336-27.04c-23.69-5.693-49.34-6.111-75.92 .2484c-61.45 14.7-109.4 66.9-119.2 129.3C189.8 160.8 192.3 186.7 200.1 210.1l-178.1 178.1c-28.12 28.12-28.12 73.69 0 101.8C35.16 504.1 53.56 512 71.1 512s36.84-7.031 50.91-21.09l178.1-178.1c23.46 7.736 49.31 10.24 76.17 6.004c62.41-9.84 114.6-57.8 129.3-119.2C513.7 172.1 513.3 146.5 507.6 122.8zM80 456c-13.25 0-24-10.75-24-24c0-13.26 10.75-24 24-24s24 10.74 24 24C104 445.3 93.25 456 80 456z"/>
  </symbol>
  <symbol id="xmark" viewBox="0 0 320 512">
    <path d="M310.6 361.4c12.5 12.5 12.5 32.75 0 45.25C304.4 412.9 296.2 416 288 416s-16.38-3.125-22.62-9.375L160 301.3L54.63 406.6C48.38 412.9 40.19 416 32 416S15.63 412.9 9.375 406.6c-12.5-12.5-12.5-32.75 0-45.25l105.4-105.4L9.375 150.6c-12.5-12.5-12.5-32.75 0-45.25s32.75-12.5 45.25 0L160 210.8l105.4-105.4c12.5-12.5 32.75-12.5 45.25 0s12.5 32.75 0 45.25l-105.4 105.4L310.6 361.4z"/>
  </symbol>
</svg>
